<mxfile host="Electron" modified="2024-02-02T20:19:41.089Z" agent="Mozilla/5.0 (Windows NT 10.0; Win64; x64) AppleWebKit/537.36 (KHTML, like Gecko) draw.io/22.1.2 Chrome/114.0.5735.289 Electron/25.9.4 Safari/537.36" etag="8CKndqwx2bnQUwwPKUES" version="22.1.2" type="device">
  <diagram name="Page-1" id="xRU2qJHfhaT9UEijFhrj">
    <mxGraphModel dx="1870" dy="496" grid="1" gridSize="10" guides="1" tooltips="1" connect="1" arrows="1" fold="1" page="1" pageScale="1" pageWidth="850" pageHeight="1100" math="0" shadow="0">
      <root>
        <mxCell id="0" />
        <mxCell id="1" parent="0" />
        <mxCell id="4JIX5KlJWy3tKQsQmlhY-1" value="&lt;span style=&quot;font-size: 30px;&quot;&gt;up-Platform (Linux)&amp;nbsp;&amp;nbsp;&lt;br&gt;&lt;br&gt;&lt;br&gt;&lt;br&gt;&lt;br&gt;&lt;/span&gt;" style="rounded=1;whiteSpace=wrap;html=1;fillColor=#FFFFFF;fontColor=#000000;fontSize=26;fontStyle=1;strokeWidth=2;align=right;strokeColor=#000000;verticalAlign=top;dashed=1;dashPattern=1 1;glass=0;sketch=1;curveFitting=1;jiggle=2;shadow=1;fontFamily=Comic Sans MS;" parent="1" vertex="1">
          <mxGeometry x="220" y="370" width="435" height="361" as="geometry" />
        </mxCell>
        <mxCell id="4JIX5KlJWy3tKQsQmlhY-2" style="edgeStyle=none;html=1;exitX=1;exitY=0.5;exitDx=0;exitDy=0;strokeColor=#000000;strokeWidth=6;fontFamily=Helvetica;fontSize=16;fontColor=#000000;endArrow=none;endFill=0;" parent="1" source="4JIX5KlJWy3tKQsQmlhY-3" edge="1">
          <mxGeometry relative="1" as="geometry">
            <mxPoint x="408.255834334936" y="578.9487179487182" as="targetPoint" />
          </mxGeometry>
        </mxCell>
        <mxCell id="4JIX5KlJWy3tKQsQmlhY-3" value="up-Subscription" style="rounded=1;whiteSpace=wrap;html=1;fillColor=#a0522d;strokeColor=#6D1F00;fontStyle=1;fontSize=16;fontColor=#ffffff;" parent="1" vertex="1">
          <mxGeometry x="238" y="559" width="120" height="40" as="geometry" />
        </mxCell>
        <mxCell id="4JIX5KlJWy3tKQsQmlhY-4" style="edgeStyle=none;html=1;exitX=1;exitY=0.5;exitDx=0;exitDy=0;strokeColor=#000000;strokeWidth=6;fontFamily=Helvetica;fontSize=16;fontColor=#000000;endArrow=none;endFill=0;" parent="1" source="4JIX5KlJWy3tKQsQmlhY-5" edge="1">
          <mxGeometry relative="1" as="geometry">
            <mxPoint x="407.82846304086524" y="528" as="targetPoint" />
          </mxGeometry>
        </mxCell>
        <mxCell id="4JIX5KlJWy3tKQsQmlhY-5" value="up-Discovery" style="rounded=1;whiteSpace=wrap;html=1;fillColor=#fa6800;strokeColor=#C73500;fontStyle=1;fontSize=16;fontColor=#000000;" parent="1" vertex="1">
          <mxGeometry x="238" y="508" width="120" height="40" as="geometry" />
        </mxCell>
        <mxCell id="4JIX5KlJWy3tKQsQmlhY-6" style="edgeStyle=none;html=1;exitX=0;exitY=0.5;exitDx=0;exitDy=0;strokeColor=#000000;strokeWidth=6;fontFamily=Helvetica;fontSize=16;fontColor=#000000;endArrow=none;endFill=0;" parent="1" source="4JIX5KlJWy3tKQsQmlhY-7" edge="1">
          <mxGeometry relative="1" as="geometry">
            <mxPoint x="409.1105143229165" y="580" as="targetPoint" />
          </mxGeometry>
        </mxCell>
        <mxCell id="4JIX5KlJWy3tKQsQmlhY-7" value="up-Twin" style="rounded=1;whiteSpace=wrap;html=1;fillColor=#e3c800;strokeColor=#B09500;fontStyle=1;fontSize=16;fontColor=#000000;" parent="1" vertex="1">
          <mxGeometry x="467" y="560" width="120" height="40" as="geometry" />
        </mxCell>
        <mxCell id="4JIX5KlJWy3tKQsQmlhY-8" value="up-Streamer" style="rounded=1;whiteSpace=wrap;html=1;fillColor=#cdeb8b;strokeColor=#36393d;fontStyle=1;fontSize=18;align=center;verticalAlign=middle;fontColor=#000000;" parent="1" vertex="1">
          <mxGeometry x="291" y="609" width="232" height="105" as="geometry" />
        </mxCell>
        <mxCell id="4JIX5KlJWy3tKQsQmlhY-9" value="&lt;span style=&quot;color: rgb(0, 0, 0);&quot;&gt;&lt;font style=&quot;font-size: 12px;&quot;&gt;&lt;b&gt;Zenoh&lt;/b&gt;&lt;/font&gt;&lt;/span&gt;" style="html=1;whiteSpace=wrap;fillColor=#FFFFFF;fontColor=#FFFFFF;strokeColor=#FF0000;" parent="1" vertex="1">
          <mxGeometry x="354" y="611" width="105" height="30" as="geometry" />
        </mxCell>
        <mxCell id="4JIX5KlJWy3tKQsQmlhY-10" value="" style="shape=image;verticalLabelPosition=bottom;labelBackgroundColor=default;verticalAlign=top;aspect=fixed;imageAspect=0;image=data:image/png,iVBORw0KGgoAAAANSUhEUgAAAJYAAACWCAMAAAAL34HQAAAAAXNSR0IArs4c6QAAAARnQU1BAACxjwv8YQUAAAAzUExURQAAAAAAAAAAAAAAAAAAAAAAAAAAAAAAAAAAAAAAAAAAAAAAAAAAAAAAAAAAAAAAAAAAAKMFRskAAAAQdFJOUwAQIDBAUGBwgI+fr7/P3+8jGoKKAAAACXBIWXMAABcRAAAXEQHKJvM/AAAEo0lEQVR4Xu2b6bbiIBCExeyb+P5POwldLNFcTaCizjl8f2aihlSapukG7iWTyWQymUwmk8lkMpnM11FKXWdw9QOosunGm76D29C3pcJ3X0JV3QQ5a8auxE8+jqpGZ6Mthho/tNTj00d0iu6lJqELna1dPjlXV/naUJ5AmLlD4+IMisE8ch89hBVyedpoUI/dp6ehLUFVt0+GbM1tJ8sqV0/VXVM8PUnVa+VTMX94qizVSesGPVZ/PqXq8SNDd66s8iaNL+h2McILmuDHkzpRVu375oWhPLUXphv59wRZjVOlm53NQ4yHL8u71bh/TlYrHztBlmtfN/hkH+uhy5Zl5o6F8WjLKpzOybKck8xjfT9l282E/ciVFafKWdjDlWX9QyaSnSBUraDKsg84pOpS464QqiwlbR4bglvWuuErEsuL68M53FMCpCt8w6LsuzdT4BZNP4S8m0Uzmcz/RdGOtqQioZr+YFh+QoovzdRl0pwJF3FUyMVHXDOQrCKh6C99+kacMyT5GnB1mFXxTFw6kIogssHHij7VST1XaTDKXcMy1UD0emk64j3VxopMj+/SkV6McK7R3PgALSepTHP6cJqK3n8gLdQEINM9PLhx31ymrsxGCxLiXMfKggUTr3Sv0ADCFy1IxDrXPD/ocfElc/+9xgg4/n7bSJyPCahX45CoXCo423Ev3UZ8Pt5XS3P/vbSrIqQtAHnbeJ+Q15oDshInI8nCkMLVcVAVz/8zAml5hGk1vr6W9RBTCNfjbR6ZJEyz8fFZZNHiqMM0G+8SgbWomGbjZYlv8bdpTLNxqc0CRiKuaKRkXAuQRXN1gCiNq+MgnLKXWaTZeJdF3GPv74rLJgxwyed5ebwgGURCcJaUhpU5WCQhScjCZYpmRwiZYBMKWEyKzFrfDcSERuHz3O14yQKTukDszSvGFqTN6Gp/Iaky3wZ9mDSOXCLIA/tASXUUnIvZi9KHiXWBVIrEFQjYPzEWIkTwIir6MPU9YXNcJXOV+SxpHC7AXKx5EZVw8sIBajGSueBZhDwczkAxl91MJ7iqXb9hJIPY8b4x8l2J9AzDK6zHUuZYa67k0WOXMtIbMsBPk4cPulCzagOM6sQJA6p4oRlBIq3st4esKP4uoDJL0VVAFXVvH6PxPu191aJdH329wuDkTNfuSu3UZWwTlFyFVXXoiM573GGnfbokH3JpQoUevPPWyIDTpXcU2Rh06DB/+nK3D+zH6XrfEXbkirX8DtLETL4tXpc53voCzO4Szf1m2ymqQl2v8wmkeiaaX/2+5OHDe3sJdE0vBjqmvjmah6fXu7NUzTjnnY3xl4sh9mq1OlJPjgwPuAC0sDql78C22rDa6+ZG0WfWx1s3/ubCzsgh9HC1AYoOx9CG0mxwCJiY0+DfPJ4HnvF9hODg2X38OZ1r4PqC9TKbF1venl4nEx6Gn7GBbN3Dt89ZytH4KOYTaptgL4xfELXg/+bCpZyhx2/Hj89wbYabDs7PrwMbPvwFwsB1ehg9QhhA2HsNKRSBsC862DP2nBx/xygR62I/Za0F05O/NBhB0XafmaUzmUwmk8lkMplMJsPgcvkH4Ad6f12xvsgAAAAASUVORK5CYII=;" parent="1" vertex="1">
          <mxGeometry x="562" y="560" width="25" height="25" as="geometry" />
        </mxCell>
        <mxCell id="4JIX5KlJWy3tKQsQmlhY-11" value="" style="shape=image;verticalLabelPosition=bottom;labelBackgroundColor=default;verticalAlign=top;aspect=fixed;imageAspect=0;image=data:image/png,iVBORw0KGgoAAAANSUhEUgAAAJYAAACWCAMAAAAL34HQAAAAAXNSR0IArs4c6QAAAARnQU1BAACxjwv8YQUAAAAzUExURQAAAAAAAAAAAAAAAAAAAAAAAAAAAAAAAAAAAAAAAAAAAAAAAAAAAAAAAAAAAAAAAAAAAKMFRskAAAAQdFJOUwAQIDBAUGBwgI+fr7/P3+8jGoKKAAAACXBIWXMAABcRAAAXEQHKJvM/AAAEo0lEQVR4Xu2b6bbiIBCExeyb+P5POwldLNFcTaCizjl8f2aihlSapukG7iWTyWQymUwmk8lkMpnM11FKXWdw9QOosunGm76D29C3pcJ3X0JV3QQ5a8auxE8+jqpGZ6Mthho/tNTj00d0iu6lJqELna1dPjlXV/naUJ5AmLlD4+IMisE8ch89hBVyedpoUI/dp6ehLUFVt0+GbM1tJ8sqV0/VXVM8PUnVa+VTMX94qizVSesGPVZ/PqXq8SNDd66s8iaNL+h2McILmuDHkzpRVu375oWhPLUXphv59wRZjVOlm53NQ4yHL8u71bh/TlYrHztBlmtfN/hkH+uhy5Zl5o6F8WjLKpzOybKck8xjfT9l282E/ciVFafKWdjDlWX9QyaSnSBUraDKsg84pOpS464QqiwlbR4bglvWuuErEsuL68M53FMCpCt8w6LsuzdT4BZNP4S8m0Uzmcz/RdGOtqQioZr+YFh+QoovzdRl0pwJF3FUyMVHXDOQrCKh6C99+kacMyT5GnB1mFXxTFw6kIogssHHij7VST1XaTDKXcMy1UD0emk64j3VxopMj+/SkV6McK7R3PgALSepTHP6cJqK3n8gLdQEINM9PLhx31ymrsxGCxLiXMfKggUTr3Sv0ADCFy1IxDrXPD/ocfElc/+9xgg4/n7bSJyPCahX45CoXCo423Ev3UZ8Pt5XS3P/vbSrIqQtAHnbeJ+Q15oDshInI8nCkMLVcVAVz/8zAml5hGk1vr6W9RBTCNfjbR6ZJEyz8fFZZNHiqMM0G+8SgbWomGbjZYlv8bdpTLNxqc0CRiKuaKRkXAuQRXN1gCiNq+MgnLKXWaTZeJdF3GPv74rLJgxwyed5ebwgGURCcJaUhpU5WCQhScjCZYpmRwiZYBMKWEyKzFrfDcSERuHz3O14yQKTukDszSvGFqTN6Gp/Iaky3wZ9mDSOXCLIA/tASXUUnIvZi9KHiXWBVIrEFQjYPzEWIkTwIir6MPU9YXNcJXOV+SxpHC7AXKx5EZVw8sIBajGSueBZhDwczkAxl91MJ7iqXb9hJIPY8b4x8l2J9AzDK6zHUuZYa67k0WOXMtIbMsBPk4cPulCzagOM6sQJA6p4oRlBIq3st4esKP4uoDJL0VVAFXVvH6PxPu191aJdH329wuDkTNfuSu3UZWwTlFyFVXXoiM573GGnfbokH3JpQoUevPPWyIDTpXcU2Rh06DB/+nK3D+zH6XrfEXbkirX8DtLETL4tXpc53voCzO4Szf1m2ymqQl2v8wmkeiaaX/2+5OHDe3sJdE0vBjqmvjmah6fXu7NUzTjnnY3xl4sh9mq1OlJPjgwPuAC0sDql78C22rDa6+ZG0WfWx1s3/ubCzsgh9HC1AYoOx9CG0mxwCJiY0+DfPJ4HnvF9hODg2X38OZ1r4PqC9TKbF1venl4nEx6Gn7GBbN3Dt89ZytH4KOYTaptgL4xfELXg/+bCpZyhx2/Hj89wbYabDs7PrwMbPvwFwsB1ehg9QhhA2HsNKRSBsC862DP2nBx/xygR62I/Za0F05O/NBhB0XafmaUzmUwmk8lkMplMJsPgcvkH4Ad6f12xvsgAAAAASUVORK5CYII=;" parent="1" vertex="1">
          <mxGeometry x="333" y="508" width="25" height="25" as="geometry" />
        </mxCell>
        <mxCell id="4JIX5KlJWy3tKQsQmlhY-12" value="" style="shape=image;verticalLabelPosition=bottom;labelBackgroundColor=default;verticalAlign=top;aspect=fixed;imageAspect=0;image=data:image/png,iVBORw0KGgoAAAANSUhEUgAAAJYAAACWCAMAAAAL34HQAAAAAXNSR0IArs4c6QAAAARnQU1BAACxjwv8YQUAAAAzUExURQAAAAAAAAAAAAAAAAAAAAAAAAAAAAAAAAAAAAAAAAAAAAAAAAAAAAAAAAAAAAAAAAAAAKMFRskAAAAQdFJOUwAQIDBAUGBwgI+fr7/P3+8jGoKKAAAACXBIWXMAABcRAAAXEQHKJvM/AAAEo0lEQVR4Xu2b6bbiIBCExeyb+P5POwldLNFcTaCizjl8f2aihlSapukG7iWTyWQymUwmk8lkMpnM11FKXWdw9QOosunGm76D29C3pcJ3X0JV3QQ5a8auxE8+jqpGZ6Mthho/tNTj00d0iu6lJqELna1dPjlXV/naUJ5AmLlD4+IMisE8ch89hBVyedpoUI/dp6ehLUFVt0+GbM1tJ8sqV0/VXVM8PUnVa+VTMX94qizVSesGPVZ/PqXq8SNDd66s8iaNL+h2McILmuDHkzpRVu375oWhPLUXphv59wRZjVOlm53NQ4yHL8u71bh/TlYrHztBlmtfN/hkH+uhy5Zl5o6F8WjLKpzOybKck8xjfT9l282E/ciVFafKWdjDlWX9QyaSnSBUraDKsg84pOpS464QqiwlbR4bglvWuuErEsuL68M53FMCpCt8w6LsuzdT4BZNP4S8m0Uzmcz/RdGOtqQioZr+YFh+QoovzdRl0pwJF3FUyMVHXDOQrCKh6C99+kacMyT5GnB1mFXxTFw6kIogssHHij7VST1XaTDKXcMy1UD0emk64j3VxopMj+/SkV6McK7R3PgALSepTHP6cJqK3n8gLdQEINM9PLhx31ymrsxGCxLiXMfKggUTr3Sv0ADCFy1IxDrXPD/ocfElc/+9xgg4/n7bSJyPCahX45CoXCo423Ev3UZ8Pt5XS3P/vbSrIqQtAHnbeJ+Q15oDshInI8nCkMLVcVAVz/8zAml5hGk1vr6W9RBTCNfjbR6ZJEyz8fFZZNHiqMM0G+8SgbWomGbjZYlv8bdpTLNxqc0CRiKuaKRkXAuQRXN1gCiNq+MgnLKXWaTZeJdF3GPv74rLJgxwyed5ebwgGURCcJaUhpU5WCQhScjCZYpmRwiZYBMKWEyKzFrfDcSERuHz3O14yQKTukDszSvGFqTN6Gp/Iaky3wZ9mDSOXCLIA/tASXUUnIvZi9KHiXWBVIrEFQjYPzEWIkTwIir6MPU9YXNcJXOV+SxpHC7AXKx5EZVw8sIBajGSueBZhDwczkAxl91MJ7iqXb9hJIPY8b4x8l2J9AzDK6zHUuZYa67k0WOXMtIbMsBPk4cPulCzagOM6sQJA6p4oRlBIq3st4esKP4uoDJL0VVAFXVvH6PxPu191aJdH329wuDkTNfuSu3UZWwTlFyFVXXoiM573GGnfbokH3JpQoUevPPWyIDTpXcU2Rh06DB/+nK3D+zH6XrfEXbkirX8DtLETL4tXpc53voCzO4Szf1m2ymqQl2v8wmkeiaaX/2+5OHDe3sJdE0vBjqmvjmah6fXu7NUzTjnnY3xl4sh9mq1OlJPjgwPuAC0sDql78C22rDa6+ZG0WfWx1s3/ubCzsgh9HC1AYoOx9CG0mxwCJiY0+DfPJ4HnvF9hODg2X38OZ1r4PqC9TKbF1venl4nEx6Gn7GBbN3Dt89ZytH4KOYTaptgL4xfELXg/+bCpZyhx2/Hj89wbYabDs7PrwMbPvwFwsB1ehg9QhhA2HsNKRSBsC862DP2nBx/xygR62I/Za0F05O/NBhB0XafmaUzmUwmk8lkMplMJsPgcvkH4Ad6f12xvsgAAAAASUVORK5CYII=;" parent="1" vertex="1">
          <mxGeometry x="335" y="557" width="25" height="25" as="geometry" />
        </mxCell>
        <mxCell id="4JIX5KlJWy3tKQsQmlhY-14" value="&lt;b&gt;SOME/IP&lt;/b&gt;" style="html=1;whiteSpace=wrap;fillColor=#FF9933;strokeColor=#C73500;fontColor=#000000;" parent="1" vertex="1">
          <mxGeometry x="299" y="674" width="105" height="30" as="geometry" />
        </mxCell>
        <mxCell id="4JIX5KlJWy3tKQsQmlhY-17" value="&lt;font style=&quot;font-size: 21px;&quot;&gt;Apps &amp;amp; Services&lt;/font&gt;" style="rounded=1;whiteSpace=wrap;html=1;fillColor=#f8cecc;strokeColor=#b85450;fontSize=21;verticalAlign=middle;fontStyle=1;fontColor=#000000;" parent="1" vertex="1">
          <mxGeometry x="328.25" y="420" width="160" height="60" as="geometry" />
        </mxCell>
        <mxCell id="4JIX5KlJWy3tKQsQmlhY-18" value="" style="shape=image;verticalLabelPosition=bottom;labelBackgroundColor=default;verticalAlign=top;aspect=fixed;imageAspect=0;image=data:image/png,iVBORw0KGgoAAAANSUhEUgAAAJYAAACWCAMAAAAL34HQAAAAAXNSR0IArs4c6QAAAARnQU1BAACxjwv8YQUAAAAzUExURQAAAAAAAAAAAAAAAAAAAAAAAAAAAAAAAAAAAAAAAAAAAAAAAAAAAAAAAAAAAAAAAAAAAKMFRskAAAAQdFJOUwAQIDBAUGBwgI+fr7/P3+8jGoKKAAAACXBIWXMAABcRAAAXEQHKJvM/AAAEo0lEQVR4Xu2b6bbiIBCExeyb+P5POwldLNFcTaCizjl8f2aihlSapukG7iWTyWQymUwmk8lkMpnM11FKXWdw9QOosunGm76D29C3pcJ3X0JV3QQ5a8auxE8+jqpGZ6Mthho/tNTj00d0iu6lJqELna1dPjlXV/naUJ5AmLlD4+IMisE8ch89hBVyedpoUI/dp6ehLUFVt0+GbM1tJ8sqV0/VXVM8PUnVa+VTMX94qizVSesGPVZ/PqXq8SNDd66s8iaNL+h2McILmuDHkzpRVu375oWhPLUXphv59wRZjVOlm53NQ4yHL8u71bh/TlYrHztBlmtfN/hkH+uhy5Zl5o6F8WjLKpzOybKck8xjfT9l282E/ciVFafKWdjDlWX9QyaSnSBUraDKsg84pOpS464QqiwlbR4bglvWuuErEsuL68M53FMCpCt8w6LsuzdT4BZNP4S8m0Uzmcz/RdGOtqQioZr+YFh+QoovzdRl0pwJF3FUyMVHXDOQrCKh6C99+kacMyT5GnB1mFXxTFw6kIogssHHij7VST1XaTDKXcMy1UD0emk64j3VxopMj+/SkV6McK7R3PgALSepTHP6cJqK3n8gLdQEINM9PLhx31ymrsxGCxLiXMfKggUTr3Sv0ADCFy1IxDrXPD/ocfElc/+9xgg4/n7bSJyPCahX45CoXCo423Ev3UZ8Pt5XS3P/vbSrIqQtAHnbeJ+Q15oDshInI8nCkMLVcVAVz/8zAml5hGk1vr6W9RBTCNfjbR6ZJEyz8fFZZNHiqMM0G+8SgbWomGbjZYlv8bdpTLNxqc0CRiKuaKRkXAuQRXN1gCiNq+MgnLKXWaTZeJdF3GPv74rLJgxwyed5ebwgGURCcJaUhpU5WCQhScjCZYpmRwiZYBMKWEyKzFrfDcSERuHz3O14yQKTukDszSvGFqTN6Gp/Iaky3wZ9mDSOXCLIA/tASXUUnIvZi9KHiXWBVIrEFQjYPzEWIkTwIir6MPU9YXNcJXOV+SxpHC7AXKx5EZVw8sIBajGSueBZhDwczkAxl91MJ7iqXb9hJIPY8b4x8l2J9AzDK6zHUuZYa67k0WOXMtIbMsBPk4cPulCzagOM6sQJA6p4oRlBIq3st4esKP4uoDJL0VVAFXVvH6PxPu191aJdH329wuDkTNfuSu3UZWwTlFyFVXXoiM573GGnfbokH3JpQoUevPPWyIDTpXcU2Rh06DB/+nK3D+zH6XrfEXbkirX8DtLETL4tXpc53voCzO4Szf1m2ymqQl2v8wmkeiaaX/2+5OHDe3sJdE0vBjqmvjmah6fXu7NUzTjnnY3xl4sh9mq1OlJPjgwPuAC0sDql78C22rDa6+ZG0WfWx1s3/ubCzsgh9HC1AYoOx9CG0mxwCJiY0+DfPJ4HnvF9hODg2X38OZ1r4PqC9TKbF1venl4nEx6Gn7GBbN3Dt89ZytH4KOYTaptgL4xfELXg/+bCpZyhx2/Hj89wbYabDs7PrwMbPvwFwsB1ehg9QhhA2HsNKRSBsC862DP2nBx/xygR62I/Za0F05O/NBhB0XafmaUzmUwmk8lkMplMJsPgcvkH4Ad6f12xvsgAAAAASUVORK5CYII=;" parent="1" vertex="1">
          <mxGeometry x="445" y="429.5" width="25" height="25" as="geometry" />
        </mxCell>
        <mxCell id="4JIX5KlJWy3tKQsQmlhY-19" value="&lt;font style=&quot;font-size: 21px;&quot;&gt;Apps &amp;amp; Services&lt;/font&gt;" style="rounded=1;whiteSpace=wrap;html=1;fillColor=#f8cecc;strokeColor=#b85450;fontSize=21;verticalAlign=middle;fontStyle=1;fontColor=#000000;" parent="1" vertex="1">
          <mxGeometry x="325.75" y="424.5" width="160" height="60" as="geometry" />
        </mxCell>
        <mxCell id="4JIX5KlJWy3tKQsQmlhY-20" style="edgeStyle=none;html=1;exitX=0.5;exitY=1;exitDx=0;exitDy=0;strokeColor=#000000;strokeWidth=6;fontFamily=Helvetica;fontSize=16;fontColor=#000000;entryX=0.5;entryY=0;entryDx=0;entryDy=0;endArrow=none;endFill=0;" parent="1" source="4JIX5KlJWy3tKQsQmlhY-21" target="4JIX5KlJWy3tKQsQmlhY-9" edge="1">
          <mxGeometry relative="1" as="geometry">
            <mxPoint x="656.995834334936" y="520.4487179487182" as="targetPoint" />
          </mxGeometry>
        </mxCell>
        <mxCell id="4JIX5KlJWy3tKQsQmlhY-21" value="&lt;font style=&quot;font-size: 21px;&quot;&gt;Apps &amp;amp; Services&lt;/font&gt;" style="rounded=1;whiteSpace=wrap;html=1;fillColor=#f8cecc;strokeColor=#b85450;fontSize=21;verticalAlign=middle;fontStyle=1;fontColor=#000000;" parent="1" vertex="1">
          <mxGeometry x="325.75" y="429.5" width="160" height="60" as="geometry" />
        </mxCell>
        <mxCell id="4JIX5KlJWy3tKQsQmlhY-22" value="" style="shape=image;verticalLabelPosition=bottom;labelBackgroundColor=default;verticalAlign=top;aspect=fixed;imageAspect=0;image=data:image/png,iVBORw0KGgoAAAANSUhEUgAAAJYAAACWCAMAAAAL34HQAAAAAXNSR0IArs4c6QAAAARnQU1BAACxjwv8YQUAAAAzUExURQAAAAAAAAAAAAAAAAAAAAAAAAAAAAAAAAAAAAAAAAAAAAAAAAAAAAAAAAAAAAAAAAAAAKMFRskAAAAQdFJOUwAQIDBAUGBwgI+fr7/P3+8jGoKKAAAACXBIWXMAABcRAAAXEQHKJvM/AAAEo0lEQVR4Xu2b6bbiIBCExeyb+P5POwldLNFcTaCizjl8f2aihlSapukG7iWTyWQymUwmk8lkMpnM11FKXWdw9QOosunGm76D29C3pcJ3X0JV3QQ5a8auxE8+jqpGZ6Mthho/tNTj00d0iu6lJqELna1dPjlXV/naUJ5AmLlD4+IMisE8ch89hBVyedpoUI/dp6ehLUFVt0+GbM1tJ8sqV0/VXVM8PUnVa+VTMX94qizVSesGPVZ/PqXq8SNDd66s8iaNL+h2McILmuDHkzpRVu375oWhPLUXphv59wRZjVOlm53NQ4yHL8u71bh/TlYrHztBlmtfN/hkH+uhy5Zl5o6F8WjLKpzOybKck8xjfT9l282E/ciVFafKWdjDlWX9QyaSnSBUraDKsg84pOpS464QqiwlbR4bglvWuuErEsuL68M53FMCpCt8w6LsuzdT4BZNP4S8m0Uzmcz/RdGOtqQioZr+YFh+QoovzdRl0pwJF3FUyMVHXDOQrCKh6C99+kacMyT5GnB1mFXxTFw6kIogssHHij7VST1XaTDKXcMy1UD0emk64j3VxopMj+/SkV6McK7R3PgALSepTHP6cJqK3n8gLdQEINM9PLhx31ymrsxGCxLiXMfKggUTr3Sv0ADCFy1IxDrXPD/ocfElc/+9xgg4/n7bSJyPCahX45CoXCo423Ev3UZ8Pt5XS3P/vbSrIqQtAHnbeJ+Q15oDshInI8nCkMLVcVAVz/8zAml5hGk1vr6W9RBTCNfjbR6ZJEyz8fFZZNHiqMM0G+8SgbWomGbjZYlv8bdpTLNxqc0CRiKuaKRkXAuQRXN1gCiNq+MgnLKXWaTZeJdF3GPv74rLJgxwyed5ebwgGURCcJaUhpU5WCQhScjCZYpmRwiZYBMKWEyKzFrfDcSERuHz3O14yQKTukDszSvGFqTN6Gp/Iaky3wZ9mDSOXCLIA/tASXUUnIvZi9KHiXWBVIrEFQjYPzEWIkTwIir6MPU9YXNcJXOV+SxpHC7AXKx5EZVw8sIBajGSueBZhDwczkAxl91MJ7iqXb9hJIPY8b4x8l2J9AzDK6zHUuZYa67k0WOXMtIbMsBPk4cPulCzagOM6sQJA6p4oRlBIq3st4esKP4uoDJL0VVAFXVvH6PxPu191aJdH329wuDkTNfuSu3UZWwTlFyFVXXoiM573GGnfbokH3JpQoUevPPWyIDTpXcU2Rh06DB/+nK3D+zH6XrfEXbkirX8DtLETL4tXpc53voCzO4Szf1m2ymqQl2v8wmkeiaaX/2+5OHDe3sJdE0vBjqmvjmah6fXu7NUzTjnnY3xl4sh9mq1OlJPjgwPuAC0sDql78C22rDa6+ZG0WfWx1s3/ubCzsgh9HC1AYoOx9CG0mxwCJiY0+DfPJ4HnvF9hODg2X38OZ1r4PqC9TKbF1venl4nEx6Gn7GBbN3Dt89ZytH4KOYTaptgL4xfELXg/+bCpZyhx2/Hj89wbYabDs7PrwMbPvwFwsB1ehg9QhhA2HsNKRSBsC862DP2nBx/xygR62I/Za0F05O/NBhB0XafmaUzmUwmk8lkMplMJsPgcvkH4Ad6f12xvsgAAAAASUVORK5CYII=;" parent="1" vertex="1">
          <mxGeometry x="458" y="437.5" width="25" height="25" as="geometry" />
        </mxCell>
        <mxCell id="4JIX5KlJWy3tKQsQmlhY-23" value="" style="shape=image;verticalLabelPosition=bottom;labelBackgroundColor=default;verticalAlign=top;aspect=fixed;imageAspect=0;image=data:image/png,iVBORw0KGgoAAAANSUhEUgAAAJYAAACWCAMAAAAL34HQAAAAAXNSR0IArs4c6QAAAARnQU1BAACxjwv8YQUAAAAzUExURQAAAAAAAAAAAAAAAAAAAAAAAAAAAAAAAAAAAAAAAAAAAAAAAAAAAAAAAAAAAAAAAAAAAKMFRskAAAAQdFJOUwAQIDBAUGBwgI+fr7/P3+8jGoKKAAAACXBIWXMAABcRAAAXEQHKJvM/AAAEo0lEQVR4Xu2b6bbiIBCExeyb+P5POwldLNFcTaCizjl8f2aihlSapukG7iWTyWQymUwmk8lkMpnM11FKXWdw9QOosunGm76D29C3pcJ3X0JV3QQ5a8auxE8+jqpGZ6Mthho/tNTj00d0iu6lJqELna1dPjlXV/naUJ5AmLlD4+IMisE8ch89hBVyedpoUI/dp6ehLUFVt0+GbM1tJ8sqV0/VXVM8PUnVa+VTMX94qizVSesGPVZ/PqXq8SNDd66s8iaNL+h2McILmuDHkzpRVu375oWhPLUXphv59wRZjVOlm53NQ4yHL8u71bh/TlYrHztBlmtfN/hkH+uhy5Zl5o6F8WjLKpzOybKck8xjfT9l282E/ciVFafKWdjDlWX9QyaSnSBUraDKsg84pOpS464QqiwlbR4bglvWuuErEsuL68M53FMCpCt8w6LsuzdT4BZNP4S8m0Uzmcz/RdGOtqQioZr+YFh+QoovzdRl0pwJF3FUyMVHXDOQrCKh6C99+kacMyT5GnB1mFXxTFw6kIogssHHij7VST1XaTDKXcMy1UD0emk64j3VxopMj+/SkV6McK7R3PgALSepTHP6cJqK3n8gLdQEINM9PLhx31ymrsxGCxLiXMfKggUTr3Sv0ADCFy1IxDrXPD/ocfElc/+9xgg4/n7bSJyPCahX45CoXCo423Ev3UZ8Pt5XS3P/vbSrIqQtAHnbeJ+Q15oDshInI8nCkMLVcVAVz/8zAml5hGk1vr6W9RBTCNfjbR6ZJEyz8fFZZNHiqMM0G+8SgbWomGbjZYlv8bdpTLNxqc0CRiKuaKRkXAuQRXN1gCiNq+MgnLKXWaTZeJdF3GPv74rLJgxwyed5ebwgGURCcJaUhpU5WCQhScjCZYpmRwiZYBMKWEyKzFrfDcSERuHz3O14yQKTukDszSvGFqTN6Gp/Iaky3wZ9mDSOXCLIA/tASXUUnIvZi9KHiXWBVIrEFQjYPzEWIkTwIir6MPU9YXNcJXOV+SxpHC7AXKx5EZVw8sIBajGSueBZhDwczkAxl91MJ7iqXb9hJIPY8b4x8l2J9AzDK6zHUuZYa67k0WOXMtIbMsBPk4cPulCzagOM6sQJA6p4oRlBIq3st4esKP4uoDJL0VVAFXVvH6PxPu191aJdH329wuDkTNfuSu3UZWwTlFyFVXXoiM573GGnfbokH3JpQoUevPPWyIDTpXcU2Rh06DB/+nK3D+zH6XrfEXbkirX8DtLETL4tXpc53voCzO4Szf1m2ymqQl2v8wmkeiaaX/2+5OHDe3sJdE0vBjqmvjmah6fXu7NUzTjnnY3xl4sh9mq1OlJPjgwPuAC0sDql78C22rDa6+ZG0WfWx1s3/ubCzsgh9HC1AYoOx9CG0mxwCJiY0+DfPJ4HnvF9hODg2X38OZ1r4PqC9TKbF1venl4nEx6Gn7GBbN3Dt89ZytH4KOYTaptgL4xfELXg/+bCpZyhx2/Hj89wbYabDs7PrwMbPvwFwsB1ehg9QhhA2HsNKRSBsC862DP2nBx/xygR62I/Za0F05O/NBhB0XafmaUzmUwmk8lkMplMJsPgcvkH4Ad6f12xvsgAAAAASUVORK5CYII=;" parent="1" vertex="1">
          <mxGeometry x="494" y="616" width="25" height="25" as="geometry" />
        </mxCell>
        <mxCell id="4JIX5KlJWy3tKQsQmlhY-25" value="&lt;b style=&quot;font-size: 22px;&quot;&gt;&lt;font style=&quot;font-size: 22px;&quot;&gt;Legend&lt;/font&gt;&lt;/b&gt;" style="rounded=0;whiteSpace=wrap;html=1;verticalAlign=top;fontSize=22;fillColor=#FFFFFF;strokeColor=#000000;fontColor=#000000;" parent="1" vertex="1">
          <mxGeometry x="-30" y="101" width="159" height="85" as="geometry" />
        </mxCell>
        <mxCell id="4JIX5KlJWy3tKQsQmlhY-26" value="&lt;font style=&quot;font-size: 10px;&quot;&gt;Software up-Entity&lt;/font&gt;" style="rounded=1;whiteSpace=wrap;html=1;fillColor=#FFFFFF;strokeColor=#000000;fontStyle=1;fontSize=16;fontColor=#000000;" parent="1" vertex="1">
          <mxGeometry y="135" width="100.5" height="40" as="geometry" />
        </mxCell>
        <mxCell id="4JIX5KlJWy3tKQsQmlhY-27" value="" style="shape=image;verticalLabelPosition=bottom;labelBackgroundColor=default;verticalAlign=top;aspect=fixed;imageAspect=0;image=data:image/png,iVBORw0KGgoAAAANSUhEUgAAAJYAAACWCAMAAAAL34HQAAAAAXNSR0IArs4c6QAAAARnQU1BAACxjwv8YQUAAAAzUExURQAAAAAAAAAAAAAAAAAAAAAAAAAAAAAAAAAAAAAAAAAAAAAAAAAAAAAAAAAAAAAAAAAAAKMFRskAAAAQdFJOUwAQIDBAUGBwgI+fr7/P3+8jGoKKAAAACXBIWXMAABcRAAAXEQHKJvM/AAAEo0lEQVR4Xu2b6bbiIBCExeyb+P5POwldLNFcTaCizjl8f2aihlSapukG7iWTyWQymUwmk8lkMpnM11FKXWdw9QOosunGm76D29C3pcJ3X0JV3QQ5a8auxE8+jqpGZ6Mthho/tNTj00d0iu6lJqELna1dPjlXV/naUJ5AmLlD4+IMisE8ch89hBVyedpoUI/dp6ehLUFVt0+GbM1tJ8sqV0/VXVM8PUnVa+VTMX94qizVSesGPVZ/PqXq8SNDd66s8iaNL+h2McILmuDHkzpRVu375oWhPLUXphv59wRZjVOlm53NQ4yHL8u71bh/TlYrHztBlmtfN/hkH+uhy5Zl5o6F8WjLKpzOybKck8xjfT9l282E/ciVFafKWdjDlWX9QyaSnSBUraDKsg84pOpS464QqiwlbR4bglvWuuErEsuL68M53FMCpCt8w6LsuzdT4BZNP4S8m0Uzmcz/RdGOtqQioZr+YFh+QoovzdRl0pwJF3FUyMVHXDOQrCKh6C99+kacMyT5GnB1mFXxTFw6kIogssHHij7VST1XaTDKXcMy1UD0emk64j3VxopMj+/SkV6McK7R3PgALSepTHP6cJqK3n8gLdQEINM9PLhx31ymrsxGCxLiXMfKggUTr3Sv0ADCFy1IxDrXPD/ocfElc/+9xgg4/n7bSJyPCahX45CoXCo423Ev3UZ8Pt5XS3P/vbSrIqQtAHnbeJ+Q15oDshInI8nCkMLVcVAVz/8zAml5hGk1vr6W9RBTCNfjbR6ZJEyz8fFZZNHiqMM0G+8SgbWomGbjZYlv8bdpTLNxqc0CRiKuaKRkXAuQRXN1gCiNq+MgnLKXWaTZeJdF3GPv74rLJgxwyed5ebwgGURCcJaUhpU5WCQhScjCZYpmRwiZYBMKWEyKzFrfDcSERuHz3O14yQKTukDszSvGFqTN6Gp/Iaky3wZ9mDSOXCLIA/tASXUUnIvZi9KHiXWBVIrEFQjYPzEWIkTwIir6MPU9YXNcJXOV+SxpHC7AXKx5EZVw8sIBajGSueBZhDwczkAxl91MJ7iqXb9hJIPY8b4x8l2J9AzDK6zHUuZYa67k0WOXMtIbMsBPk4cPulCzagOM6sQJA6p4oRlBIq3st4esKP4uoDJL0VVAFXVvH6PxPu191aJdH329wuDkTNfuSu3UZWwTlFyFVXXoiM573GGnfbokH3JpQoUevPPWyIDTpXcU2Rh06DB/+nK3D+zH6XrfEXbkirX8DtLETL4tXpc53voCzO4Szf1m2ymqQl2v8wmkeiaaX/2+5OHDe3sJdE0vBjqmvjmah6fXu7NUzTjnnY3xl4sh9mq1OlJPjgwPuAC0sDql78C22rDa6+ZG0WfWx1s3/ubCzsgh9HC1AYoOx9CG0mxwCJiY0+DfPJ4HnvF9hODg2X38OZ1r4PqC9TKbF1venl4nEx6Gn7GBbN3Dt89ZytH4KOYTaptgL4xfELXg/+bCpZyhx2/Hj89wbYabDs7PrwMbPvwFwsB1ehg9QhhA2HsNKRSBsC862DP2nBx/xygR62I/Za0F05O/NBhB0XafmaUzmUwmk8lkMplMJsPgcvkH4Ad6f12xvsgAAAAASUVORK5CYII=;" parent="1" vertex="1">
          <mxGeometry x="79.24000000000001" y="135" width="18" height="18" as="geometry" />
        </mxCell>
        <mxCell id="4JIX5KlJWy3tKQsQmlhY-31" value="&lt;font style=&quot;&quot;&gt;&lt;font style=&quot;font-size: 30px;&quot;&gt;up-Simulator &lt;/font&gt;&lt;font style=&quot;font-weight: normal; font-size: 15px;&quot;&gt;( PC, MAC, uBuntu.)&lt;/font&gt;&lt;/font&gt;" style="rounded=1;whiteSpace=wrap;html=1;fillColor=#FFFFFF;fontColor=#000000;fontSize=26;fontStyle=1;strokeWidth=2;align=right;strokeColor=#000000;verticalAlign=top;dashed=1;dashPattern=1 1;glass=0;sketch=1;curveFitting=1;jiggle=2;shadow=1;fontFamily=Comic Sans MS;" parent="1" vertex="1">
          <mxGeometry x="-630" y="280" width="704" height="259" as="geometry" />
        </mxCell>
        <mxCell id="4JIX5KlJWy3tKQsQmlhY-33" value="&lt;b&gt;uTransport (up-Python)&lt;/b&gt;" style="html=1;whiteSpace=wrap;fillColor=#000000;fontColor=#FFFFFF;" parent="1" vertex="1">
          <mxGeometry x="-570" y="400" width="580" height="40" as="geometry" />
        </mxCell>
        <mxCell id="4JIX5KlJWy3tKQsQmlhY-34" value="up-client-android" style="rounded=1;whiteSpace=wrap;html=3;fillColor=#FFFFFF;strokeColor=#3333FF;fontStyle=1;fontSize=16;fontColor=#000000;shadow=0;" parent="1" vertex="1">
          <mxGeometry x="-570" y="430" width="170" height="40" as="geometry" />
        </mxCell>
        <mxCell id="4JIX5KlJWy3tKQsQmlhY-35" value="up-client-someip" style="rounded=1;whiteSpace=wrap;html=1;fillColor=#FFFFFF;strokeColor=#FF8000;fontStyle=1;fontSize=16;fontColor=#000000;shadow=0;" parent="1" vertex="1">
          <mxGeometry x="-390" y="430" width="170" height="40" as="geometry" />
        </mxCell>
        <mxCell id="4JIX5KlJWy3tKQsQmlhY-36" value="up-client-zenoh" style="rounded=1;whiteSpace=wrap;html=1;fillColor=#FFFFFF;strokeColor=#FF0000;fontStyle=1;fontSize=16;fontColor=#000000;" parent="1" vertex="1">
          <mxGeometry x="-210" y="429.5" width="170" height="40" as="geometry" />
        </mxCell>
        <mxCell id="4JIX5KlJWy3tKQsQmlhY-50" value="Logger" style="rounded=1;whiteSpace=wrap;html=1;fillColor=#e3c800;strokeColor=#B09500;fontStyle=1;fontSize=16;fontColor=#000000;" parent="1" vertex="1">
          <mxGeometry x="-545" y="330" width="120" height="40" as="geometry" />
        </mxCell>
        <mxCell id="4JIX5KlJWy3tKQsQmlhY-51" value="" style="shape=image;verticalLabelPosition=bottom;labelBackgroundColor=default;verticalAlign=top;aspect=fixed;imageAspect=0;image=data:image/png,iVBORw0KGgoAAAANSUhEUgAAAJYAAACWCAMAAAAL34HQAAAAAXNSR0IArs4c6QAAAARnQU1BAACxjwv8YQUAAAAzUExURQAAAAAAAAAAAAAAAAAAAAAAAAAAAAAAAAAAAAAAAAAAAAAAAAAAAAAAAAAAAAAAAAAAAKMFRskAAAAQdFJOUwAQIDBAUGBwgI+fr7/P3+8jGoKKAAAACXBIWXMAABcRAAAXEQHKJvM/AAAEo0lEQVR4Xu2b6bbiIBCExeyb+P5POwldLNFcTaCizjl8f2aihlSapukG7iWTyWQymUwmk8lkMpnM11FKXWdw9QOosunGm76D29C3pcJ3X0JV3QQ5a8auxE8+jqpGZ6Mthho/tNTj00d0iu6lJqELna1dPjlXV/naUJ5AmLlD4+IMisE8ch89hBVyedpoUI/dp6ehLUFVt0+GbM1tJ8sqV0/VXVM8PUnVa+VTMX94qizVSesGPVZ/PqXq8SNDd66s8iaNL+h2McILmuDHkzpRVu375oWhPLUXphv59wRZjVOlm53NQ4yHL8u71bh/TlYrHztBlmtfN/hkH+uhy5Zl5o6F8WjLKpzOybKck8xjfT9l282E/ciVFafKWdjDlWX9QyaSnSBUraDKsg84pOpS464QqiwlbR4bglvWuuErEsuL68M53FMCpCt8w6LsuzdT4BZNP4S8m0Uzmcz/RdGOtqQioZr+YFh+QoovzdRl0pwJF3FUyMVHXDOQrCKh6C99+kacMyT5GnB1mFXxTFw6kIogssHHij7VST1XaTDKXcMy1UD0emk64j3VxopMj+/SkV6McK7R3PgALSepTHP6cJqK3n8gLdQEINM9PLhx31ymrsxGCxLiXMfKggUTr3Sv0ADCFy1IxDrXPD/ocfElc/+9xgg4/n7bSJyPCahX45CoXCo423Ev3UZ8Pt5XS3P/vbSrIqQtAHnbeJ+Q15oDshInI8nCkMLVcVAVz/8zAml5hGk1vr6W9RBTCNfjbR6ZJEyz8fFZZNHiqMM0G+8SgbWomGbjZYlv8bdpTLNxqc0CRiKuaKRkXAuQRXN1gCiNq+MgnLKXWaTZeJdF3GPv74rLJgxwyed5ebwgGURCcJaUhpU5WCQhScjCZYpmRwiZYBMKWEyKzFrfDcSERuHz3O14yQKTukDszSvGFqTN6Gp/Iaky3wZ9mDSOXCLIA/tASXUUnIvZi9KHiXWBVIrEFQjYPzEWIkTwIir6MPU9YXNcJXOV+SxpHC7AXKx5EZVw8sIBajGSueBZhDwczkAxl91MJ7iqXb9hJIPY8b4x8l2J9AzDK6zHUuZYa67k0WOXMtIbMsBPk4cPulCzagOM6sQJA6p4oRlBIq3st4esKP4uoDJL0VVAFXVvH6PxPu191aJdH329wuDkTNfuSu3UZWwTlFyFVXXoiM573GGnfbokH3JpQoUevPPWyIDTpXcU2Rh06DB/+nK3D+zH6XrfEXbkirX8DtLETL4tXpc53voCzO4Szf1m2ymqQl2v8wmkeiaaX/2+5OHDe3sJdE0vBjqmvjmah6fXu7NUzTjnnY3xl4sh9mq1OlJPjgwPuAC0sDql78C22rDa6+ZG0WfWx1s3/ubCzsgh9HC1AYoOx9CG0mxwCJiY0+DfPJ4HnvF9hODg2X38OZ1r4PqC9TKbF1venl4nEx6Gn7GBbN3Dt89ZytH4KOYTaptgL4xfELXg/+bCpZyhx2/Hj89wbYabDs7PrwMbPvwFwsB1ehg9QhhA2HsNKRSBsC862DP2nBx/xygR62I/Za0F05O/NBhB0XafmaUzmUwmk8lkMplMJsPgcvkH4Ad6f12xvsgAAAAASUVORK5CYII=;" parent="1" vertex="1">
          <mxGeometry x="-450" y="330" width="25" height="25" as="geometry" />
        </mxCell>
        <mxCell id="4JIX5KlJWy3tKQsQmlhY-52" value="uLogger" style="rounded=1;whiteSpace=wrap;html=1;fillColor=#e3c800;strokeColor=#B09500;fontStyle=1;fontSize=16;fontColor=#000000;" parent="1" vertex="1">
          <mxGeometry x="-389" y="310.5" width="120" height="40" as="geometry" />
        </mxCell>
        <mxCell id="4JIX5KlJWy3tKQsQmlhY-53" value="Mock Services" style="rounded=1;whiteSpace=wrap;html=1;fillColor=#e3c800;strokeColor=#B09500;fontStyle=1;fontSize=16;fontColor=#000000;" parent="1" vertex="1">
          <mxGeometry x="-400" y="322" width="120" height="48" as="geometry" />
        </mxCell>
        <mxCell id="4JIX5KlJWy3tKQsQmlhY-54" value="" style="shape=image;verticalLabelPosition=bottom;labelBackgroundColor=default;verticalAlign=top;aspect=fixed;imageAspect=0;image=data:image/png,iVBORw0KGgoAAAANSUhEUgAAAJYAAACWCAMAAAAL34HQAAAAAXNSR0IArs4c6QAAAARnQU1BAACxjwv8YQUAAAAzUExURQAAAAAAAAAAAAAAAAAAAAAAAAAAAAAAAAAAAAAAAAAAAAAAAAAAAAAAAAAAAAAAAAAAAKMFRskAAAAQdFJOUwAQIDBAUGBwgI+fr7/P3+8jGoKKAAAACXBIWXMAABcRAAAXEQHKJvM/AAAEo0lEQVR4Xu2b6bbiIBCExeyb+P5POwldLNFcTaCizjl8f2aihlSapukG7iWTyWQymUwmk8lkMpnM11FKXWdw9QOosunGm76D29C3pcJ3X0JV3QQ5a8auxE8+jqpGZ6Mthho/tNTj00d0iu6lJqELna1dPjlXV/naUJ5AmLlD4+IMisE8ch89hBVyedpoUI/dp6ehLUFVt0+GbM1tJ8sqV0/VXVM8PUnVa+VTMX94qizVSesGPVZ/PqXq8SNDd66s8iaNL+h2McILmuDHkzpRVu375oWhPLUXphv59wRZjVOlm53NQ4yHL8u71bh/TlYrHztBlmtfN/hkH+uhy5Zl5o6F8WjLKpzOybKck8xjfT9l282E/ciVFafKWdjDlWX9QyaSnSBUraDKsg84pOpS464QqiwlbR4bglvWuuErEsuL68M53FMCpCt8w6LsuzdT4BZNP4S8m0Uzmcz/RdGOtqQioZr+YFh+QoovzdRl0pwJF3FUyMVHXDOQrCKh6C99+kacMyT5GnB1mFXxTFw6kIogssHHij7VST1XaTDKXcMy1UD0emk64j3VxopMj+/SkV6McK7R3PgALSepTHP6cJqK3n8gLdQEINM9PLhx31ymrsxGCxLiXMfKggUTr3Sv0ADCFy1IxDrXPD/ocfElc/+9xgg4/n7bSJyPCahX45CoXCo423Ev3UZ8Pt5XS3P/vbSrIqQtAHnbeJ+Q15oDshInI8nCkMLVcVAVz/8zAml5hGk1vr6W9RBTCNfjbR6ZJEyz8fFZZNHiqMM0G+8SgbWomGbjZYlv8bdpTLNxqc0CRiKuaKRkXAuQRXN1gCiNq+MgnLKXWaTZeJdF3GPv74rLJgxwyed5ebwgGURCcJaUhpU5WCQhScjCZYpmRwiZYBMKWEyKzFrfDcSERuHz3O14yQKTukDszSvGFqTN6Gp/Iaky3wZ9mDSOXCLIA/tASXUUnIvZi9KHiXWBVIrEFQjYPzEWIkTwIir6MPU9YXNcJXOV+SxpHC7AXKx5EZVw8sIBajGSueBZhDwczkAxl91MJ7iqXb9hJIPY8b4x8l2J9AzDK6zHUuZYa67k0WOXMtIbMsBPk4cPulCzagOM6sQJA6p4oRlBIq3st4esKP4uoDJL0VVAFXVvH6PxPu191aJdH329wuDkTNfuSu3UZWwTlFyFVXXoiM573GGnfbokH3JpQoUevPPWyIDTpXcU2Rh06DB/+nK3D+zH6XrfEXbkirX8DtLETL4tXpc53voCzO4Szf1m2ymqQl2v8wmkeiaaX/2+5OHDe3sJdE0vBjqmvjmah6fXu7NUzTjnnY3xl4sh9mq1OlJPjgwPuAC0sDql78C22rDa6+ZG0WfWx1s3/ubCzsgh9HC1AYoOx9CG0mxwCJiY0+DfPJ4HnvF9hODg2X38OZ1r4PqC9TKbF1venl4nEx6Gn7GBbN3Dt89ZytH4KOYTaptgL4xfELXg/+bCpZyhx2/Hj89wbYabDs7PrwMbPvwFwsB1ehg9QhhA2HsNKRSBsC862DP2nBx/xygR62I/Za0F05O/NBhB0XafmaUzmUwmk8lkMplMJsPgcvkH4Ad6f12xvsgAAAAASUVORK5CYII=;" parent="1" vertex="1">
          <mxGeometry x="-305" y="320" width="25" height="25" as="geometry" />
        </mxCell>
        <mxCell id="4JIX5KlJWy3tKQsQmlhY-55" value="SimUI" style="rounded=1;whiteSpace=wrap;html=1;fillColor=#e3c800;strokeColor=#B09500;fontStyle=1;fontSize=16;fontColor=#000000;" parent="1" vertex="1">
          <mxGeometry x="-260" y="325.5" width="120" height="40" as="geometry" />
        </mxCell>
        <mxCell id="4JIX5KlJWy3tKQsQmlhY-56" value="" style="shape=image;verticalLabelPosition=bottom;labelBackgroundColor=default;verticalAlign=top;aspect=fixed;imageAspect=0;image=data:image/png,iVBORw0KGgoAAAANSUhEUgAAAJYAAACWCAMAAAAL34HQAAAAAXNSR0IArs4c6QAAAARnQU1BAACxjwv8YQUAAAAzUExURQAAAAAAAAAAAAAAAAAAAAAAAAAAAAAAAAAAAAAAAAAAAAAAAAAAAAAAAAAAAAAAAAAAAKMFRskAAAAQdFJOUwAQIDBAUGBwgI+fr7/P3+8jGoKKAAAACXBIWXMAABcRAAAXEQHKJvM/AAAEo0lEQVR4Xu2b6bbiIBCExeyb+P5POwldLNFcTaCizjl8f2aihlSapukG7iWTyWQymUwmk8lkMpnM11FKXWdw9QOosunGm76D29C3pcJ3X0JV3QQ5a8auxE8+jqpGZ6Mthho/tNTj00d0iu6lJqELna1dPjlXV/naUJ5AmLlD4+IMisE8ch89hBVyedpoUI/dp6ehLUFVt0+GbM1tJ8sqV0/VXVM8PUnVa+VTMX94qizVSesGPVZ/PqXq8SNDd66s8iaNL+h2McILmuDHkzpRVu375oWhPLUXphv59wRZjVOlm53NQ4yHL8u71bh/TlYrHztBlmtfN/hkH+uhy5Zl5o6F8WjLKpzOybKck8xjfT9l282E/ciVFafKWdjDlWX9QyaSnSBUraDKsg84pOpS464QqiwlbR4bglvWuuErEsuL68M53FMCpCt8w6LsuzdT4BZNP4S8m0Uzmcz/RdGOtqQioZr+YFh+QoovzdRl0pwJF3FUyMVHXDOQrCKh6C99+kacMyT5GnB1mFXxTFw6kIogssHHij7VST1XaTDKXcMy1UD0emk64j3VxopMj+/SkV6McK7R3PgALSepTHP6cJqK3n8gLdQEINM9PLhx31ymrsxGCxLiXMfKggUTr3Sv0ADCFy1IxDrXPD/ocfElc/+9xgg4/n7bSJyPCahX45CoXCo423Ev3UZ8Pt5XS3P/vbSrIqQtAHnbeJ+Q15oDshInI8nCkMLVcVAVz/8zAml5hGk1vr6W9RBTCNfjbR6ZJEyz8fFZZNHiqMM0G+8SgbWomGbjZYlv8bdpTLNxqc0CRiKuaKRkXAuQRXN1gCiNq+MgnLKXWaTZeJdF3GPv74rLJgxwyed5ebwgGURCcJaUhpU5WCQhScjCZYpmRwiZYBMKWEyKzFrfDcSERuHz3O14yQKTukDszSvGFqTN6Gp/Iaky3wZ9mDSOXCLIA/tASXUUnIvZi9KHiXWBVIrEFQjYPzEWIkTwIir6MPU9YXNcJXOV+SxpHC7AXKx5EZVw8sIBajGSueBZhDwczkAxl91MJ7iqXb9hJIPY8b4x8l2J9AzDK6zHUuZYa67k0WOXMtIbMsBPk4cPulCzagOM6sQJA6p4oRlBIq3st4esKP4uoDJL0VVAFXVvH6PxPu191aJdH329wuDkTNfuSu3UZWwTlFyFVXXoiM573GGnfbokH3JpQoUevPPWyIDTpXcU2Rh06DB/+nK3D+zH6XrfEXbkirX8DtLETL4tXpc53voCzO4Szf1m2ymqQl2v8wmkeiaaX/2+5OHDe3sJdE0vBjqmvjmah6fXu7NUzTjnnY3xl4sh9mq1OlJPjgwPuAC0sDql78C22rDa6+ZG0WfWx1s3/ubCzsgh9HC1AYoOx9CG0mxwCJiY0+DfPJ4HnvF9hODg2X38OZ1r4PqC9TKbF1venl4nEx6Gn7GBbN3Dt89ZytH4KOYTaptgL4xfELXg/+bCpZyhx2/Hj89wbYabDs7PrwMbPvwFwsB1ehg9QhhA2HsNKRSBsC862DP2nBx/xygR62I/Za0F05O/NBhB0XafmaUzmUwmk8lkMplMJsPgcvkH4Ad6f12xvsgAAAAASUVORK5CYII=;" parent="1" vertex="1">
          <mxGeometry x="-165" y="325.5" width="25" height="25" as="geometry" />
        </mxCell>
        <mxCell id="4JIX5KlJWy3tKQsQmlhY-57" value="&lt;span style=&quot;font-size: 30px;&quot;&gt;up-Platform (Linux)&amp;nbsp;&amp;nbsp;&lt;br&gt;&lt;br&gt;&lt;br&gt;&lt;br&gt;&lt;br&gt;&lt;/span&gt;" style="rounded=1;whiteSpace=wrap;html=1;fillColor=#FFFFFF;fontColor=#000000;fontSize=26;fontStyle=1;strokeWidth=2;align=right;strokeColor=#000000;verticalAlign=top;dashed=1;dashPattern=1 1;glass=0;sketch=1;curveFitting=1;jiggle=2;shadow=1;fontFamily=Comic Sans MS;" parent="1" vertex="1">
          <mxGeometry x="220" y="20" width="435" height="290" as="geometry" />
        </mxCell>
        <mxCell id="4JIX5KlJWy3tKQsQmlhY-58" style="edgeStyle=none;html=1;exitX=1;exitY=0.5;exitDx=0;exitDy=0;strokeColor=#000000;strokeWidth=6;fontFamily=Helvetica;fontSize=16;fontColor=#000000;endArrow=none;endFill=0;" parent="1" source="4JIX5KlJWy3tKQsQmlhY-59" edge="1">
          <mxGeometry relative="1" as="geometry">
            <mxPoint x="408.255834334936" y="228.94871794871824" as="targetPoint" />
          </mxGeometry>
        </mxCell>
        <mxCell id="4JIX5KlJWy3tKQsQmlhY-59" value="up-Subscription" style="rounded=1;whiteSpace=wrap;html=1;fillColor=#a0522d;strokeColor=#6D1F00;fontStyle=1;fontSize=16;fontColor=#ffffff;" parent="1" vertex="1">
          <mxGeometry x="238" y="209" width="120" height="40" as="geometry" />
        </mxCell>
        <mxCell id="4JIX5KlJWy3tKQsQmlhY-60" style="edgeStyle=none;html=1;exitX=1;exitY=0.5;exitDx=0;exitDy=0;strokeColor=#000000;strokeWidth=6;fontFamily=Helvetica;fontSize=16;fontColor=#000000;endArrow=none;endFill=0;" parent="1" source="4JIX5KlJWy3tKQsQmlhY-61" edge="1">
          <mxGeometry relative="1" as="geometry">
            <mxPoint x="407.82846304086524" y="178" as="targetPoint" />
          </mxGeometry>
        </mxCell>
        <mxCell id="4JIX5KlJWy3tKQsQmlhY-61" value="up-Discovery" style="rounded=1;whiteSpace=wrap;html=1;fillColor=#fa6800;strokeColor=#C73500;fontStyle=1;fontSize=16;fontColor=#000000;" parent="1" vertex="1">
          <mxGeometry x="238" y="158" width="120" height="40" as="geometry" />
        </mxCell>
        <mxCell id="4JIX5KlJWy3tKQsQmlhY-62" style="edgeStyle=none;html=1;exitX=0;exitY=0.5;exitDx=0;exitDy=0;strokeColor=#000000;strokeWidth=6;fontFamily=Helvetica;fontSize=16;fontColor=#000000;endArrow=none;endFill=0;" parent="1" source="4JIX5KlJWy3tKQsQmlhY-63" edge="1">
          <mxGeometry relative="1" as="geometry">
            <mxPoint x="409.1105143229165" y="230" as="targetPoint" />
          </mxGeometry>
        </mxCell>
        <mxCell id="4JIX5KlJWy3tKQsQmlhY-63" value="up-Twin" style="rounded=1;whiteSpace=wrap;html=1;fillColor=#e3c800;strokeColor=#B09500;fontStyle=1;fontSize=16;fontColor=#000000;" parent="1" vertex="1">
          <mxGeometry x="467" y="210" width="120" height="40" as="geometry" />
        </mxCell>
        <mxCell id="4JIX5KlJWy3tKQsQmlhY-65" value="&lt;span style=&quot;color: rgb(0, 0, 0);&quot;&gt;&lt;font style=&quot;font-size: 12px;&quot;&gt;&lt;b&gt;Zenoh&lt;/b&gt;&lt;/font&gt;&lt;/span&gt;" style="html=1;whiteSpace=wrap;fillColor=#FFFFFF;fontColor=#FFFFFF;strokeColor=#FF0000;" parent="1" vertex="1">
          <mxGeometry x="354" y="261" width="105" height="30" as="geometry" />
        </mxCell>
        <mxCell id="4JIX5KlJWy3tKQsQmlhY-66" value="" style="shape=image;verticalLabelPosition=bottom;labelBackgroundColor=default;verticalAlign=top;aspect=fixed;imageAspect=0;image=data:image/png,iVBORw0KGgoAAAANSUhEUgAAAJYAAACWCAMAAAAL34HQAAAAAXNSR0IArs4c6QAAAARnQU1BAACxjwv8YQUAAAAzUExURQAAAAAAAAAAAAAAAAAAAAAAAAAAAAAAAAAAAAAAAAAAAAAAAAAAAAAAAAAAAAAAAAAAAKMFRskAAAAQdFJOUwAQIDBAUGBwgI+fr7/P3+8jGoKKAAAACXBIWXMAABcRAAAXEQHKJvM/AAAEo0lEQVR4Xu2b6bbiIBCExeyb+P5POwldLNFcTaCizjl8f2aihlSapukG7iWTyWQymUwmk8lkMpnM11FKXWdw9QOosunGm76D29C3pcJ3X0JV3QQ5a8auxE8+jqpGZ6Mthho/tNTj00d0iu6lJqELna1dPjlXV/naUJ5AmLlD4+IMisE8ch89hBVyedpoUI/dp6ehLUFVt0+GbM1tJ8sqV0/VXVM8PUnVa+VTMX94qizVSesGPVZ/PqXq8SNDd66s8iaNL+h2McILmuDHkzpRVu375oWhPLUXphv59wRZjVOlm53NQ4yHL8u71bh/TlYrHztBlmtfN/hkH+uhy5Zl5o6F8WjLKpzOybKck8xjfT9l282E/ciVFafKWdjDlWX9QyaSnSBUraDKsg84pOpS464QqiwlbR4bglvWuuErEsuL68M53FMCpCt8w6LsuzdT4BZNP4S8m0Uzmcz/RdGOtqQioZr+YFh+QoovzdRl0pwJF3FUyMVHXDOQrCKh6C99+kacMyT5GnB1mFXxTFw6kIogssHHij7VST1XaTDKXcMy1UD0emk64j3VxopMj+/SkV6McK7R3PgALSepTHP6cJqK3n8gLdQEINM9PLhx31ymrsxGCxLiXMfKggUTr3Sv0ADCFy1IxDrXPD/ocfElc/+9xgg4/n7bSJyPCahX45CoXCo423Ev3UZ8Pt5XS3P/vbSrIqQtAHnbeJ+Q15oDshInI8nCkMLVcVAVz/8zAml5hGk1vr6W9RBTCNfjbR6ZJEyz8fFZZNHiqMM0G+8SgbWomGbjZYlv8bdpTLNxqc0CRiKuaKRkXAuQRXN1gCiNq+MgnLKXWaTZeJdF3GPv74rLJgxwyed5ebwgGURCcJaUhpU5WCQhScjCZYpmRwiZYBMKWEyKzFrfDcSERuHz3O14yQKTukDszSvGFqTN6Gp/Iaky3wZ9mDSOXCLIA/tASXUUnIvZi9KHiXWBVIrEFQjYPzEWIkTwIir6MPU9YXNcJXOV+SxpHC7AXKx5EZVw8sIBajGSueBZhDwczkAxl91MJ7iqXb9hJIPY8b4x8l2J9AzDK6zHUuZYa67k0WOXMtIbMsBPk4cPulCzagOM6sQJA6p4oRlBIq3st4esKP4uoDJL0VVAFXVvH6PxPu191aJdH329wuDkTNfuSu3UZWwTlFyFVXXoiM573GGnfbokH3JpQoUevPPWyIDTpXcU2Rh06DB/+nK3D+zH6XrfEXbkirX8DtLETL4tXpc53voCzO4Szf1m2ymqQl2v8wmkeiaaX/2+5OHDe3sJdE0vBjqmvjmah6fXu7NUzTjnnY3xl4sh9mq1OlJPjgwPuAC0sDql78C22rDa6+ZG0WfWx1s3/ubCzsgh9HC1AYoOx9CG0mxwCJiY0+DfPJ4HnvF9hODg2X38OZ1r4PqC9TKbF1venl4nEx6Gn7GBbN3Dt89ZytH4KOYTaptgL4xfELXg/+bCpZyhx2/Hj89wbYabDs7PrwMbPvwFwsB1ehg9QhhA2HsNKRSBsC862DP2nBx/xygR62I/Za0F05O/NBhB0XafmaUzmUwmk8lkMplMJsPgcvkH4Ad6f12xvsgAAAAASUVORK5CYII=;" parent="1" vertex="1">
          <mxGeometry x="562" y="210" width="25" height="25" as="geometry" />
        </mxCell>
        <mxCell id="4JIX5KlJWy3tKQsQmlhY-67" value="" style="shape=image;verticalLabelPosition=bottom;labelBackgroundColor=default;verticalAlign=top;aspect=fixed;imageAspect=0;image=data:image/png,iVBORw0KGgoAAAANSUhEUgAAAJYAAACWCAMAAAAL34HQAAAAAXNSR0IArs4c6QAAAARnQU1BAACxjwv8YQUAAAAzUExURQAAAAAAAAAAAAAAAAAAAAAAAAAAAAAAAAAAAAAAAAAAAAAAAAAAAAAAAAAAAAAAAAAAAKMFRskAAAAQdFJOUwAQIDBAUGBwgI+fr7/P3+8jGoKKAAAACXBIWXMAABcRAAAXEQHKJvM/AAAEo0lEQVR4Xu2b6bbiIBCExeyb+P5POwldLNFcTaCizjl8f2aihlSapukG7iWTyWQymUwmk8lkMpnM11FKXWdw9QOosunGm76D29C3pcJ3X0JV3QQ5a8auxE8+jqpGZ6Mthho/tNTj00d0iu6lJqELna1dPjlXV/naUJ5AmLlD4+IMisE8ch89hBVyedpoUI/dp6ehLUFVt0+GbM1tJ8sqV0/VXVM8PUnVa+VTMX94qizVSesGPVZ/PqXq8SNDd66s8iaNL+h2McILmuDHkzpRVu375oWhPLUXphv59wRZjVOlm53NQ4yHL8u71bh/TlYrHztBlmtfN/hkH+uhy5Zl5o6F8WjLKpzOybKck8xjfT9l282E/ciVFafKWdjDlWX9QyaSnSBUraDKsg84pOpS464QqiwlbR4bglvWuuErEsuL68M53FMCpCt8w6LsuzdT4BZNP4S8m0Uzmcz/RdGOtqQioZr+YFh+QoovzdRl0pwJF3FUyMVHXDOQrCKh6C99+kacMyT5GnB1mFXxTFw6kIogssHHij7VST1XaTDKXcMy1UD0emk64j3VxopMj+/SkV6McK7R3PgALSepTHP6cJqK3n8gLdQEINM9PLhx31ymrsxGCxLiXMfKggUTr3Sv0ADCFy1IxDrXPD/ocfElc/+9xgg4/n7bSJyPCahX45CoXCo423Ev3UZ8Pt5XS3P/vbSrIqQtAHnbeJ+Q15oDshInI8nCkMLVcVAVz/8zAml5hGk1vr6W9RBTCNfjbR6ZJEyz8fFZZNHiqMM0G+8SgbWomGbjZYlv8bdpTLNxqc0CRiKuaKRkXAuQRXN1gCiNq+MgnLKXWaTZeJdF3GPv74rLJgxwyed5ebwgGURCcJaUhpU5WCQhScjCZYpmRwiZYBMKWEyKzFrfDcSERuHz3O14yQKTukDszSvGFqTN6Gp/Iaky3wZ9mDSOXCLIA/tASXUUnIvZi9KHiXWBVIrEFQjYPzEWIkTwIir6MPU9YXNcJXOV+SxpHC7AXKx5EZVw8sIBajGSueBZhDwczkAxl91MJ7iqXb9hJIPY8b4x8l2J9AzDK6zHUuZYa67k0WOXMtIbMsBPk4cPulCzagOM6sQJA6p4oRlBIq3st4esKP4uoDJL0VVAFXVvH6PxPu191aJdH329wuDkTNfuSu3UZWwTlFyFVXXoiM573GGnfbokH3JpQoUevPPWyIDTpXcU2Rh06DB/+nK3D+zH6XrfEXbkirX8DtLETL4tXpc53voCzO4Szf1m2ymqQl2v8wmkeiaaX/2+5OHDe3sJdE0vBjqmvjmah6fXu7NUzTjnnY3xl4sh9mq1OlJPjgwPuAC0sDql78C22rDa6+ZG0WfWx1s3/ubCzsgh9HC1AYoOx9CG0mxwCJiY0+DfPJ4HnvF9hODg2X38OZ1r4PqC9TKbF1venl4nEx6Gn7GBbN3Dt89ZytH4KOYTaptgL4xfELXg/+bCpZyhx2/Hj89wbYabDs7PrwMbPvwFwsB1ehg9QhhA2HsNKRSBsC862DP2nBx/xygR62I/Za0F05O/NBhB0XafmaUzmUwmk8lkMplMJsPgcvkH4Ad6f12xvsgAAAAASUVORK5CYII=;" parent="1" vertex="1">
          <mxGeometry x="333" y="158" width="25" height="25" as="geometry" />
        </mxCell>
        <mxCell id="4JIX5KlJWy3tKQsQmlhY-68" value="" style="shape=image;verticalLabelPosition=bottom;labelBackgroundColor=default;verticalAlign=top;aspect=fixed;imageAspect=0;image=data:image/png,iVBORw0KGgoAAAANSUhEUgAAAJYAAACWCAMAAAAL34HQAAAAAXNSR0IArs4c6QAAAARnQU1BAACxjwv8YQUAAAAzUExURQAAAAAAAAAAAAAAAAAAAAAAAAAAAAAAAAAAAAAAAAAAAAAAAAAAAAAAAAAAAAAAAAAAAKMFRskAAAAQdFJOUwAQIDBAUGBwgI+fr7/P3+8jGoKKAAAACXBIWXMAABcRAAAXEQHKJvM/AAAEo0lEQVR4Xu2b6bbiIBCExeyb+P5POwldLNFcTaCizjl8f2aihlSapukG7iWTyWQymUwmk8lkMpnM11FKXWdw9QOosunGm76D29C3pcJ3X0JV3QQ5a8auxE8+jqpGZ6Mthho/tNTj00d0iu6lJqELna1dPjlXV/naUJ5AmLlD4+IMisE8ch89hBVyedpoUI/dp6ehLUFVt0+GbM1tJ8sqV0/VXVM8PUnVa+VTMX94qizVSesGPVZ/PqXq8SNDd66s8iaNL+h2McILmuDHkzpRVu375oWhPLUXphv59wRZjVOlm53NQ4yHL8u71bh/TlYrHztBlmtfN/hkH+uhy5Zl5o6F8WjLKpzOybKck8xjfT9l282E/ciVFafKWdjDlWX9QyaSnSBUraDKsg84pOpS464QqiwlbR4bglvWuuErEsuL68M53FMCpCt8w6LsuzdT4BZNP4S8m0Uzmcz/RdGOtqQioZr+YFh+QoovzdRl0pwJF3FUyMVHXDOQrCKh6C99+kacMyT5GnB1mFXxTFw6kIogssHHij7VST1XaTDKXcMy1UD0emk64j3VxopMj+/SkV6McK7R3PgALSepTHP6cJqK3n8gLdQEINM9PLhx31ymrsxGCxLiXMfKggUTr3Sv0ADCFy1IxDrXPD/ocfElc/+9xgg4/n7bSJyPCahX45CoXCo423Ev3UZ8Pt5XS3P/vbSrIqQtAHnbeJ+Q15oDshInI8nCkMLVcVAVz/8zAml5hGk1vr6W9RBTCNfjbR6ZJEyz8fFZZNHiqMM0G+8SgbWomGbjZYlv8bdpTLNxqc0CRiKuaKRkXAuQRXN1gCiNq+MgnLKXWaTZeJdF3GPv74rLJgxwyed5ebwgGURCcJaUhpU5WCQhScjCZYpmRwiZYBMKWEyKzFrfDcSERuHz3O14yQKTukDszSvGFqTN6Gp/Iaky3wZ9mDSOXCLIA/tASXUUnIvZi9KHiXWBVIrEFQjYPzEWIkTwIir6MPU9YXNcJXOV+SxpHC7AXKx5EZVw8sIBajGSueBZhDwczkAxl91MJ7iqXb9hJIPY8b4x8l2J9AzDK6zHUuZYa67k0WOXMtIbMsBPk4cPulCzagOM6sQJA6p4oRlBIq3st4esKP4uoDJL0VVAFXVvH6PxPu191aJdH329wuDkTNfuSu3UZWwTlFyFVXXoiM573GGnfbokH3JpQoUevPPWyIDTpXcU2Rh06DB/+nK3D+zH6XrfEXbkirX8DtLETL4tXpc53voCzO4Szf1m2ymqQl2v8wmkeiaaX/2+5OHDe3sJdE0vBjqmvjmah6fXu7NUzTjnnY3xl4sh9mq1OlJPjgwPuAC0sDql78C22rDa6+ZG0WfWx1s3/ubCzsgh9HC1AYoOx9CG0mxwCJiY0+DfPJ4HnvF9hODg2X38OZ1r4PqC9TKbF1venl4nEx6Gn7GBbN3Dt89ZytH4KOYTaptgL4xfELXg/+bCpZyhx2/Hj89wbYabDs7PrwMbPvwFwsB1ehg9QhhA2HsNKRSBsC862DP2nBx/xygR62I/Za0F05O/NBhB0XafmaUzmUwmk8lkMplMJsPgcvkH4Ad6f12xvsgAAAAASUVORK5CYII=;" parent="1" vertex="1">
          <mxGeometry x="335" y="207" width="25" height="25" as="geometry" />
        </mxCell>
        <mxCell id="4JIX5KlJWy3tKQsQmlhY-70" value="&lt;font style=&quot;font-size: 21px;&quot;&gt;Apps &amp;amp; Services&lt;/font&gt;" style="rounded=1;whiteSpace=wrap;html=1;fillColor=#f8cecc;strokeColor=#b85450;fontSize=21;verticalAlign=middle;fontStyle=1;fontColor=#000000;" parent="1" vertex="1">
          <mxGeometry x="328.25" y="70" width="160" height="60" as="geometry" />
        </mxCell>
        <mxCell id="4JIX5KlJWy3tKQsQmlhY-71" value="" style="shape=image;verticalLabelPosition=bottom;labelBackgroundColor=default;verticalAlign=top;aspect=fixed;imageAspect=0;image=data:image/png,iVBORw0KGgoAAAANSUhEUgAAAJYAAACWCAMAAAAL34HQAAAAAXNSR0IArs4c6QAAAARnQU1BAACxjwv8YQUAAAAzUExURQAAAAAAAAAAAAAAAAAAAAAAAAAAAAAAAAAAAAAAAAAAAAAAAAAAAAAAAAAAAAAAAAAAAKMFRskAAAAQdFJOUwAQIDBAUGBwgI+fr7/P3+8jGoKKAAAACXBIWXMAABcRAAAXEQHKJvM/AAAEo0lEQVR4Xu2b6bbiIBCExeyb+P5POwldLNFcTaCizjl8f2aihlSapukG7iWTyWQymUwmk8lkMpnM11FKXWdw9QOosunGm76D29C3pcJ3X0JV3QQ5a8auxE8+jqpGZ6Mthho/tNTj00d0iu6lJqELna1dPjlXV/naUJ5AmLlD4+IMisE8ch89hBVyedpoUI/dp6ehLUFVt0+GbM1tJ8sqV0/VXVM8PUnVa+VTMX94qizVSesGPVZ/PqXq8SNDd66s8iaNL+h2McILmuDHkzpRVu375oWhPLUXphv59wRZjVOlm53NQ4yHL8u71bh/TlYrHztBlmtfN/hkH+uhy5Zl5o6F8WjLKpzOybKck8xjfT9l282E/ciVFafKWdjDlWX9QyaSnSBUraDKsg84pOpS464QqiwlbR4bglvWuuErEsuL68M53FMCpCt8w6LsuzdT4BZNP4S8m0Uzmcz/RdGOtqQioZr+YFh+QoovzdRl0pwJF3FUyMVHXDOQrCKh6C99+kacMyT5GnB1mFXxTFw6kIogssHHij7VST1XaTDKXcMy1UD0emk64j3VxopMj+/SkV6McK7R3PgALSepTHP6cJqK3n8gLdQEINM9PLhx31ymrsxGCxLiXMfKggUTr3Sv0ADCFy1IxDrXPD/ocfElc/+9xgg4/n7bSJyPCahX45CoXCo423Ev3UZ8Pt5XS3P/vbSrIqQtAHnbeJ+Q15oDshInI8nCkMLVcVAVz/8zAml5hGk1vr6W9RBTCNfjbR6ZJEyz8fFZZNHiqMM0G+8SgbWomGbjZYlv8bdpTLNxqc0CRiKuaKRkXAuQRXN1gCiNq+MgnLKXWaTZeJdF3GPv74rLJgxwyed5ebwgGURCcJaUhpU5WCQhScjCZYpmRwiZYBMKWEyKzFrfDcSERuHz3O14yQKTukDszSvGFqTN6Gp/Iaky3wZ9mDSOXCLIA/tASXUUnIvZi9KHiXWBVIrEFQjYPzEWIkTwIir6MPU9YXNcJXOV+SxpHC7AXKx5EZVw8sIBajGSueBZhDwczkAxl91MJ7iqXb9hJIPY8b4x8l2J9AzDK6zHUuZYa67k0WOXMtIbMsBPk4cPulCzagOM6sQJA6p4oRlBIq3st4esKP4uoDJL0VVAFXVvH6PxPu191aJdH329wuDkTNfuSu3UZWwTlFyFVXXoiM573GGnfbokH3JpQoUevPPWyIDTpXcU2Rh06DB/+nK3D+zH6XrfEXbkirX8DtLETL4tXpc53voCzO4Szf1m2ymqQl2v8wmkeiaaX/2+5OHDe3sJdE0vBjqmvjmah6fXu7NUzTjnnY3xl4sh9mq1OlJPjgwPuAC0sDql78C22rDa6+ZG0WfWx1s3/ubCzsgh9HC1AYoOx9CG0mxwCJiY0+DfPJ4HnvF9hODg2X38OZ1r4PqC9TKbF1venl4nEx6Gn7GBbN3Dt89ZytH4KOYTaptgL4xfELXg/+bCpZyhx2/Hj89wbYabDs7PrwMbPvwFwsB1ehg9QhhA2HsNKRSBsC862DP2nBx/xygR62I/Za0F05O/NBhB0XafmaUzmUwmk8lkMplMJsPgcvkH4Ad6f12xvsgAAAAASUVORK5CYII=;" parent="1" vertex="1">
          <mxGeometry x="445" y="79.5" width="25" height="25" as="geometry" />
        </mxCell>
        <mxCell id="4JIX5KlJWy3tKQsQmlhY-72" value="&lt;font style=&quot;font-size: 21px;&quot;&gt;Apps &amp;amp; Services&lt;/font&gt;" style="rounded=1;whiteSpace=wrap;html=1;fillColor=#f8cecc;strokeColor=#b85450;fontSize=21;verticalAlign=middle;fontStyle=1;fontColor=#000000;" parent="1" vertex="1">
          <mxGeometry x="325.75" y="74.5" width="160" height="60" as="geometry" />
        </mxCell>
        <mxCell id="4JIX5KlJWy3tKQsQmlhY-73" style="edgeStyle=none;html=1;exitX=0.5;exitY=1;exitDx=0;exitDy=0;strokeColor=#000000;strokeWidth=6;fontFamily=Helvetica;fontSize=16;fontColor=#000000;entryX=0.5;entryY=0;entryDx=0;entryDy=0;endArrow=none;endFill=0;" parent="1" source="4JIX5KlJWy3tKQsQmlhY-75" target="4JIX5KlJWy3tKQsQmlhY-65" edge="1">
          <mxGeometry relative="1" as="geometry">
            <mxPoint x="656.995834334936" y="170.44871794871824" as="targetPoint" />
          </mxGeometry>
        </mxCell>
        <mxCell id="4JIX5KlJWy3tKQsQmlhY-75" value="&lt;font style=&quot;font-size: 21px;&quot;&gt;Apps &amp;amp; Services&lt;/font&gt;" style="rounded=1;whiteSpace=wrap;html=1;fillColor=#f8cecc;strokeColor=#b85450;fontSize=21;verticalAlign=middle;fontStyle=1;fontColor=#000000;" parent="1" vertex="1">
          <mxGeometry x="325.75" y="79.5" width="160" height="60" as="geometry" />
        </mxCell>
        <mxCell id="4JIX5KlJWy3tKQsQmlhY-76" value="" style="shape=image;verticalLabelPosition=bottom;labelBackgroundColor=default;verticalAlign=top;aspect=fixed;imageAspect=0;image=data:image/png,iVBORw0KGgoAAAANSUhEUgAAAJYAAACWCAMAAAAL34HQAAAAAXNSR0IArs4c6QAAAARnQU1BAACxjwv8YQUAAAAzUExURQAAAAAAAAAAAAAAAAAAAAAAAAAAAAAAAAAAAAAAAAAAAAAAAAAAAAAAAAAAAAAAAAAAAKMFRskAAAAQdFJOUwAQIDBAUGBwgI+fr7/P3+8jGoKKAAAACXBIWXMAABcRAAAXEQHKJvM/AAAEo0lEQVR4Xu2b6bbiIBCExeyb+P5POwldLNFcTaCizjl8f2aihlSapukG7iWTyWQymUwmk8lkMpnM11FKXWdw9QOosunGm76D29C3pcJ3X0JV3QQ5a8auxE8+jqpGZ6Mthho/tNTj00d0iu6lJqELna1dPjlXV/naUJ5AmLlD4+IMisE8ch89hBVyedpoUI/dp6ehLUFVt0+GbM1tJ8sqV0/VXVM8PUnVa+VTMX94qizVSesGPVZ/PqXq8SNDd66s8iaNL+h2McILmuDHkzpRVu375oWhPLUXphv59wRZjVOlm53NQ4yHL8u71bh/TlYrHztBlmtfN/hkH+uhy5Zl5o6F8WjLKpzOybKck8xjfT9l282E/ciVFafKWdjDlWX9QyaSnSBUraDKsg84pOpS464QqiwlbR4bglvWuuErEsuL68M53FMCpCt8w6LsuzdT4BZNP4S8m0Uzmcz/RdGOtqQioZr+YFh+QoovzdRl0pwJF3FUyMVHXDOQrCKh6C99+kacMyT5GnB1mFXxTFw6kIogssHHij7VST1XaTDKXcMy1UD0emk64j3VxopMj+/SkV6McK7R3PgALSepTHP6cJqK3n8gLdQEINM9PLhx31ymrsxGCxLiXMfKggUTr3Sv0ADCFy1IxDrXPD/ocfElc/+9xgg4/n7bSJyPCahX45CoXCo423Ev3UZ8Pt5XS3P/vbSrIqQtAHnbeJ+Q15oDshInI8nCkMLVcVAVz/8zAml5hGk1vr6W9RBTCNfjbR6ZJEyz8fFZZNHiqMM0G+8SgbWomGbjZYlv8bdpTLNxqc0CRiKuaKRkXAuQRXN1gCiNq+MgnLKXWaTZeJdF3GPv74rLJgxwyed5ebwgGURCcJaUhpU5WCQhScjCZYpmRwiZYBMKWEyKzFrfDcSERuHz3O14yQKTukDszSvGFqTN6Gp/Iaky3wZ9mDSOXCLIA/tASXUUnIvZi9KHiXWBVIrEFQjYPzEWIkTwIir6MPU9YXNcJXOV+SxpHC7AXKx5EZVw8sIBajGSueBZhDwczkAxl91MJ7iqXb9hJIPY8b4x8l2J9AzDK6zHUuZYa67k0WOXMtIbMsBPk4cPulCzagOM6sQJA6p4oRlBIq3st4esKP4uoDJL0VVAFXVvH6PxPu191aJdH329wuDkTNfuSu3UZWwTlFyFVXXoiM573GGnfbokH3JpQoUevPPWyIDTpXcU2Rh06DB/+nK3D+zH6XrfEXbkirX8DtLETL4tXpc53voCzO4Szf1m2ymqQl2v8wmkeiaaX/2+5OHDe3sJdE0vBjqmvjmah6fXu7NUzTjnnY3xl4sh9mq1OlJPjgwPuAC0sDql78C22rDa6+ZG0WfWx1s3/ubCzsgh9HC1AYoOx9CG0mxwCJiY0+DfPJ4HnvF9hODg2X38OZ1r4PqC9TKbF1venl4nEx6Gn7GBbN3Dt89ZytH4KOYTaptgL4xfELXg/+bCpZyhx2/Hj89wbYabDs7PrwMbPvwFwsB1ehg9QhhA2HsNKRSBsC862DP2nBx/xygR62I/Za0F05O/NBhB0XafmaUzmUwmk8lkMplMJsPgcvkH4Ad6f12xvsgAAAAASUVORK5CYII=;" parent="1" vertex="1">
          <mxGeometry x="458" y="87.5" width="25" height="25" as="geometry" />
        </mxCell>
        <mxCell id="4JIX5KlJWy3tKQsQmlhY-77" value="" style="shape=image;verticalLabelPosition=bottom;labelBackgroundColor=default;verticalAlign=top;aspect=fixed;imageAspect=0;image=data:image/png,iVBORw0KGgoAAAANSUhEUgAAAJYAAACWCAMAAAAL34HQAAAAAXNSR0IArs4c6QAAAARnQU1BAACxjwv8YQUAAAAzUExURQAAAAAAAAAAAAAAAAAAAAAAAAAAAAAAAAAAAAAAAAAAAAAAAAAAAAAAAAAAAAAAAAAAAKMFRskAAAAQdFJOUwAQIDBAUGBwgI+fr7/P3+8jGoKKAAAACXBIWXMAABcRAAAXEQHKJvM/AAAEo0lEQVR4Xu2b6bbiIBCExeyb+P5POwldLNFcTaCizjl8f2aihlSapukG7iWTyWQymUwmk8lkMpnM11FKXWdw9QOosunGm76D29C3pcJ3X0JV3QQ5a8auxE8+jqpGZ6Mthho/tNTj00d0iu6lJqELna1dPjlXV/naUJ5AmLlD4+IMisE8ch89hBVyedpoUI/dp6ehLUFVt0+GbM1tJ8sqV0/VXVM8PUnVa+VTMX94qizVSesGPVZ/PqXq8SNDd66s8iaNL+h2McILmuDHkzpRVu375oWhPLUXphv59wRZjVOlm53NQ4yHL8u71bh/TlYrHztBlmtfN/hkH+uhy5Zl5o6F8WjLKpzOybKck8xjfT9l282E/ciVFafKWdjDlWX9QyaSnSBUraDKsg84pOpS464QqiwlbR4bglvWuuErEsuL68M53FMCpCt8w6LsuzdT4BZNP4S8m0Uzmcz/RdGOtqQioZr+YFh+QoovzdRl0pwJF3FUyMVHXDOQrCKh6C99+kacMyT5GnB1mFXxTFw6kIogssHHij7VST1XaTDKXcMy1UD0emk64j3VxopMj+/SkV6McK7R3PgALSepTHP6cJqK3n8gLdQEINM9PLhx31ymrsxGCxLiXMfKggUTr3Sv0ADCFy1IxDrXPD/ocfElc/+9xgg4/n7bSJyPCahX45CoXCo423Ev3UZ8Pt5XS3P/vbSrIqQtAHnbeJ+Q15oDshInI8nCkMLVcVAVz/8zAml5hGk1vr6W9RBTCNfjbR6ZJEyz8fFZZNHiqMM0G+8SgbWomGbjZYlv8bdpTLNxqc0CRiKuaKRkXAuQRXN1gCiNq+MgnLKXWaTZeJdF3GPv74rLJgxwyed5ebwgGURCcJaUhpU5WCQhScjCZYpmRwiZYBMKWEyKzFrfDcSERuHz3O14yQKTukDszSvGFqTN6Gp/Iaky3wZ9mDSOXCLIA/tASXUUnIvZi9KHiXWBVIrEFQjYPzEWIkTwIir6MPU9YXNcJXOV+SxpHC7AXKx5EZVw8sIBajGSueBZhDwczkAxl91MJ7iqXb9hJIPY8b4x8l2J9AzDK6zHUuZYa67k0WOXMtIbMsBPk4cPulCzagOM6sQJA6p4oRlBIq3st4esKP4uoDJL0VVAFXVvH6PxPu191aJdH329wuDkTNfuSu3UZWwTlFyFVXXoiM573GGnfbokH3JpQoUevPPWyIDTpXcU2Rh06DB/+nK3D+zH6XrfEXbkirX8DtLETL4tXpc53voCzO4Szf1m2ymqQl2v8wmkeiaaX/2+5OHDe3sJdE0vBjqmvjmah6fXu7NUzTjnnY3xl4sh9mq1OlJPjgwPuAC0sDql78C22rDa6+ZG0WfWx1s3/ubCzsgh9HC1AYoOx9CG0mxwCJiY0+DfPJ4HnvF9hODg2X38OZ1r4PqC9TKbF1venl4nEx6Gn7GBbN3Dt89ZytH4KOYTaptgL4xfELXg/+bCpZyhx2/Hj89wbYabDs7PrwMbPvwFwsB1ehg9QhhA2HsNKRSBsC862DP2nBx/xygR62I/Za0F05O/NBhB0XafmaUzmUwmk8lkMplMJsPgcvkH4Ad6f12xvsgAAAAASUVORK5CYII=;" parent="1" vertex="1">
          <mxGeometry x="494" y="266" width="25" height="25" as="geometry" />
        </mxCell>
        <mxCell id="4JIX5KlJWy3tKQsQmlhY-103" value="&lt;span style=&quot;font-size: 30px;&quot;&gt;up-Micro-Controllers(RTOS)&lt;br&gt;&lt;/span&gt;" style="rounded=1;whiteSpace=wrap;html=1;fillColor=#FFFFFF;fontColor=#000000;fontSize=26;fontStyle=1;strokeWidth=2;align=right;strokeColor=#000000;verticalAlign=top;dashed=1;dashPattern=1 1;glass=0;sketch=1;curveFitting=1;jiggle=2;shadow=1;fontFamily=Comic Sans MS;" parent="1" vertex="1">
          <mxGeometry x="230" y="798" width="435" height="230" as="geometry" />
        </mxCell>
        <mxCell id="4JIX5KlJWy3tKQsQmlhY-114" value="&lt;font style=&quot;font-size: 21px;&quot;&gt;Apps &amp;amp; Services&lt;/font&gt;" style="rounded=1;whiteSpace=wrap;html=1;fillColor=#f8cecc;strokeColor=#b85450;fontSize=21;verticalAlign=middle;fontStyle=1;fontColor=#000000;" parent="1" vertex="1">
          <mxGeometry x="338.25" y="858" width="160" height="60" as="geometry" />
        </mxCell>
        <mxCell id="4JIX5KlJWy3tKQsQmlhY-115" value="" style="shape=image;verticalLabelPosition=bottom;labelBackgroundColor=default;verticalAlign=top;aspect=fixed;imageAspect=0;image=data:image/png,iVBORw0KGgoAAAANSUhEUgAAAJYAAACWCAMAAAAL34HQAAAAAXNSR0IArs4c6QAAAARnQU1BAACxjwv8YQUAAAAzUExURQAAAAAAAAAAAAAAAAAAAAAAAAAAAAAAAAAAAAAAAAAAAAAAAAAAAAAAAAAAAAAAAAAAAKMFRskAAAAQdFJOUwAQIDBAUGBwgI+fr7/P3+8jGoKKAAAACXBIWXMAABcRAAAXEQHKJvM/AAAEo0lEQVR4Xu2b6bbiIBCExeyb+P5POwldLNFcTaCizjl8f2aihlSapukG7iWTyWQymUwmk8lkMpnM11FKXWdw9QOosunGm76D29C3pcJ3X0JV3QQ5a8auxE8+jqpGZ6Mthho/tNTj00d0iu6lJqELna1dPjlXV/naUJ5AmLlD4+IMisE8ch89hBVyedpoUI/dp6ehLUFVt0+GbM1tJ8sqV0/VXVM8PUnVa+VTMX94qizVSesGPVZ/PqXq8SNDd66s8iaNL+h2McILmuDHkzpRVu375oWhPLUXphv59wRZjVOlm53NQ4yHL8u71bh/TlYrHztBlmtfN/hkH+uhy5Zl5o6F8WjLKpzOybKck8xjfT9l282E/ciVFafKWdjDlWX9QyaSnSBUraDKsg84pOpS464QqiwlbR4bglvWuuErEsuL68M53FMCpCt8w6LsuzdT4BZNP4S8m0Uzmcz/RdGOtqQioZr+YFh+QoovzdRl0pwJF3FUyMVHXDOQrCKh6C99+kacMyT5GnB1mFXxTFw6kIogssHHij7VST1XaTDKXcMy1UD0emk64j3VxopMj+/SkV6McK7R3PgALSepTHP6cJqK3n8gLdQEINM9PLhx31ymrsxGCxLiXMfKggUTr3Sv0ADCFy1IxDrXPD/ocfElc/+9xgg4/n7bSJyPCahX45CoXCo423Ev3UZ8Pt5XS3P/vbSrIqQtAHnbeJ+Q15oDshInI8nCkMLVcVAVz/8zAml5hGk1vr6W9RBTCNfjbR6ZJEyz8fFZZNHiqMM0G+8SgbWomGbjZYlv8bdpTLNxqc0CRiKuaKRkXAuQRXN1gCiNq+MgnLKXWaTZeJdF3GPv74rLJgxwyed5ebwgGURCcJaUhpU5WCQhScjCZYpmRwiZYBMKWEyKzFrfDcSERuHz3O14yQKTukDszSvGFqTN6Gp/Iaky3wZ9mDSOXCLIA/tASXUUnIvZi9KHiXWBVIrEFQjYPzEWIkTwIir6MPU9YXNcJXOV+SxpHC7AXKx5EZVw8sIBajGSueBZhDwczkAxl91MJ7iqXb9hJIPY8b4x8l2J9AzDK6zHUuZYa67k0WOXMtIbMsBPk4cPulCzagOM6sQJA6p4oRlBIq3st4esKP4uoDJL0VVAFXVvH6PxPu191aJdH329wuDkTNfuSu3UZWwTlFyFVXXoiM573GGnfbokH3JpQoUevPPWyIDTpXcU2Rh06DB/+nK3D+zH6XrfEXbkirX8DtLETL4tXpc53voCzO4Szf1m2ymqQl2v8wmkeiaaX/2+5OHDe3sJdE0vBjqmvjmah6fXu7NUzTjnnY3xl4sh9mq1OlJPjgwPuAC0sDql78C22rDa6+ZG0WfWx1s3/ubCzsgh9HC1AYoOx9CG0mxwCJiY0+DfPJ4HnvF9hODg2X38OZ1r4PqC9TKbF1venl4nEx6Gn7GBbN3Dt89ZytH4KOYTaptgL4xfELXg/+bCpZyhx2/Hj89wbYabDs7PrwMbPvwFwsB1ehg9QhhA2HsNKRSBsC862DP2nBx/xygR62I/Za0F05O/NBhB0XafmaUzmUwmk8lkMplMJsPgcvkH4Ad6f12xvsgAAAAASUVORK5CYII=;" parent="1" vertex="1">
          <mxGeometry x="455" y="867.5" width="25" height="25" as="geometry" />
        </mxCell>
        <mxCell id="4JIX5KlJWy3tKQsQmlhY-116" value="&lt;font style=&quot;font-size: 21px;&quot;&gt;Apps &amp;amp; Services&lt;/font&gt;" style="rounded=1;whiteSpace=wrap;html=1;fillColor=#f8cecc;strokeColor=#b85450;fontSize=21;verticalAlign=middle;fontStyle=1;fontColor=#000000;" parent="1" vertex="1">
          <mxGeometry x="335.75" y="862.5" width="160" height="60" as="geometry" />
        </mxCell>
        <mxCell id="4JIX5KlJWy3tKQsQmlhY-117" style="edgeStyle=none;html=1;exitX=0.5;exitY=1;exitDx=0;exitDy=0;strokeColor=#000000;strokeWidth=6;fontFamily=Helvetica;fontSize=16;fontColor=#000000;entryX=0.5;entryY=0;entryDx=0;entryDy=0;endArrow=none;endFill=0;" parent="1" source="4JIX5KlJWy3tKQsQmlhY-119" edge="1">
          <mxGeometry relative="1" as="geometry">
            <mxPoint x="415.25" y="958" as="targetPoint" />
          </mxGeometry>
        </mxCell>
        <mxCell id="4JIX5KlJWy3tKQsQmlhY-119" value="&lt;font style=&quot;font-size: 21px;&quot;&gt;&amp;nbsp;Services&lt;/font&gt;" style="rounded=1;whiteSpace=wrap;html=1;fillColor=#f8cecc;strokeColor=#b85450;fontSize=21;verticalAlign=middle;fontStyle=1;fontColor=#000000;" parent="1" vertex="1">
          <mxGeometry x="335.75" y="867.5" width="160" height="60" as="geometry" />
        </mxCell>
        <mxCell id="4JIX5KlJWy3tKQsQmlhY-120" value="" style="shape=image;verticalLabelPosition=bottom;labelBackgroundColor=default;verticalAlign=top;aspect=fixed;imageAspect=0;image=data:image/png,iVBORw0KGgoAAAANSUhEUgAAAJYAAACWCAMAAAAL34HQAAAAAXNSR0IArs4c6QAAAARnQU1BAACxjwv8YQUAAAAzUExURQAAAAAAAAAAAAAAAAAAAAAAAAAAAAAAAAAAAAAAAAAAAAAAAAAAAAAAAAAAAAAAAAAAAKMFRskAAAAQdFJOUwAQIDBAUGBwgI+fr7/P3+8jGoKKAAAACXBIWXMAABcRAAAXEQHKJvM/AAAEo0lEQVR4Xu2b6bbiIBCExeyb+P5POwldLNFcTaCizjl8f2aihlSapukG7iWTyWQymUwmk8lkMpnM11FKXWdw9QOosunGm76D29C3pcJ3X0JV3QQ5a8auxE8+jqpGZ6Mthho/tNTj00d0iu6lJqELna1dPjlXV/naUJ5AmLlD4+IMisE8ch89hBVyedpoUI/dp6ehLUFVt0+GbM1tJ8sqV0/VXVM8PUnVa+VTMX94qizVSesGPVZ/PqXq8SNDd66s8iaNL+h2McILmuDHkzpRVu375oWhPLUXphv59wRZjVOlm53NQ4yHL8u71bh/TlYrHztBlmtfN/hkH+uhy5Zl5o6F8WjLKpzOybKck8xjfT9l282E/ciVFafKWdjDlWX9QyaSnSBUraDKsg84pOpS464QqiwlbR4bglvWuuErEsuL68M53FMCpCt8w6LsuzdT4BZNP4S8m0Uzmcz/RdGOtqQioZr+YFh+QoovzdRl0pwJF3FUyMVHXDOQrCKh6C99+kacMyT5GnB1mFXxTFw6kIogssHHij7VST1XaTDKXcMy1UD0emk64j3VxopMj+/SkV6McK7R3PgALSepTHP6cJqK3n8gLdQEINM9PLhx31ymrsxGCxLiXMfKggUTr3Sv0ADCFy1IxDrXPD/ocfElc/+9xgg4/n7bSJyPCahX45CoXCo423Ev3UZ8Pt5XS3P/vbSrIqQtAHnbeJ+Q15oDshInI8nCkMLVcVAVz/8zAml5hGk1vr6W9RBTCNfjbR6ZJEyz8fFZZNHiqMM0G+8SgbWomGbjZYlv8bdpTLNxqc0CRiKuaKRkXAuQRXN1gCiNq+MgnLKXWaTZeJdF3GPv74rLJgxwyed5ebwgGURCcJaUhpU5WCQhScjCZYpmRwiZYBMKWEyKzFrfDcSERuHz3O14yQKTukDszSvGFqTN6Gp/Iaky3wZ9mDSOXCLIA/tASXUUnIvZi9KHiXWBVIrEFQjYPzEWIkTwIir6MPU9YXNcJXOV+SxpHC7AXKx5EZVw8sIBajGSueBZhDwczkAxl91MJ7iqXb9hJIPY8b4x8l2J9AzDK6zHUuZYa67k0WOXMtIbMsBPk4cPulCzagOM6sQJA6p4oRlBIq3st4esKP4uoDJL0VVAFXVvH6PxPu191aJdH329wuDkTNfuSu3UZWwTlFyFVXXoiM573GGnfbokH3JpQoUevPPWyIDTpXcU2Rh06DB/+nK3D+zH6XrfEXbkirX8DtLETL4tXpc53voCzO4Szf1m2ymqQl2v8wmkeiaaX/2+5OHDe3sJdE0vBjqmvjmah6fXu7NUzTjnnY3xl4sh9mq1OlJPjgwPuAC0sDql78C22rDa6+ZG0WfWx1s3/ubCzsgh9HC1AYoOx9CG0mxwCJiY0+DfPJ4HnvF9hODg2X38OZ1r4PqC9TKbF1venl4nEx6Gn7GBbN3Dt89ZytH4KOYTaptgL4xfELXg/+bCpZyhx2/Hj89wbYabDs7PrwMbPvwFwsB1ehg9QhhA2HsNKRSBsC862DP2nBx/xygR62I/Za0F05O/NBhB0XafmaUzmUwmk8lkMplMJsPgcvkH4Ad6f12xvsgAAAAASUVORK5CYII=;" parent="1" vertex="1">
          <mxGeometry x="468" y="875.5" width="25" height="25" as="geometry" />
        </mxCell>
        <mxCell id="4JIX5KlJWy3tKQsQmlhY-128" value="" style="endArrow=classic;startArrow=classic;html=1;rounded=0;exitX=0.5;exitY=1;exitDx=0;exitDy=0;edgeStyle=elbowEdgeStyle;elbow=vertical;fillColor=#FF9933;strokeColor=#FF9933;width=6;" parent="1" source="4JIX5KlJWy3tKQsQmlhY-35" edge="1">
          <mxGeometry width="50" height="50" relative="1" as="geometry">
            <mxPoint x="-295" y="502" as="sourcePoint" />
            <mxPoint x="360" y="710" as="targetPoint" />
            <Array as="points">
              <mxPoint x="40" y="770" />
              <mxPoint x="20" y="690" />
            </Array>
          </mxGeometry>
        </mxCell>
        <mxCell id="4JIX5KlJWy3tKQsQmlhY-129" value="SOME/IP" style="edgeLabel;html=1;align=center;verticalAlign=middle;resizable=0;points=[];" parent="4JIX5KlJWy3tKQsQmlhY-128" vertex="1" connectable="0">
          <mxGeometry x="0.3191" y="-2" relative="1" as="geometry">
            <mxPoint x="1" as="offset" />
          </mxGeometry>
        </mxCell>
        <mxCell id="4JIX5KlJWy3tKQsQmlhY-136" value="" style="endArrow=classic;startArrow=classic;html=1;rounded=0;exitX=1;exitY=0.5;exitDx=0;exitDy=0;edgeStyle=elbowEdgeStyle;fillColor=#FF9933;strokeColor=#FF0000;width=6;entryX=0;entryY=0.5;entryDx=0;entryDy=0;shadow=0;" parent="1" source="4JIX5KlJWy3tKQsQmlhY-36" target="4JIX5KlJWy3tKQsQmlhY-65" edge="1">
          <mxGeometry width="50" height="50" relative="1" as="geometry">
            <mxPoint x="-285" y="512" as="sourcePoint" />
            <mxPoint x="370" y="720" as="targetPoint" />
          </mxGeometry>
        </mxCell>
        <mxCell id="4JIX5KlJWy3tKQsQmlhY-137" value="Zenoh" style="edgeLabel;html=1;align=center;verticalAlign=middle;resizable=0;points=[];" parent="4JIX5KlJWy3tKQsQmlhY-136" vertex="1" connectable="0">
          <mxGeometry x="0.3191" y="-2" relative="1" as="geometry">
            <mxPoint x="1" as="offset" />
          </mxGeometry>
        </mxCell>
        <mxCell id="IsRGL3yXtJuiuz7G9jz4-23" value="&lt;span style=&quot;font-size: 30px;&quot;&gt;up-Platform (Android)&amp;nbsp;&amp;nbsp;&lt;br&gt;&lt;br&gt;&lt;br&gt;&lt;br&gt;&lt;br&gt;&lt;/span&gt;" style="rounded=1;whiteSpace=wrap;html=1;fillColor=#FFFFFF;fontColor=#000000;fontSize=26;fontStyle=1;strokeWidth=2;align=right;strokeColor=#000000;verticalAlign=top;dashed=1;dashPattern=1 1;glass=0;sketch=1;curveFitting=1;jiggle=2;shadow=1;fontFamily=Comic Sans MS;" parent="1" vertex="1">
          <mxGeometry x="230" y="1089" width="435" height="300" as="geometry" />
        </mxCell>
        <mxCell id="IsRGL3yXtJuiuz7G9jz4-24" style="edgeStyle=none;html=1;exitX=1;exitY=0.5;exitDx=0;exitDy=0;strokeColor=#000000;strokeWidth=6;fontFamily=Helvetica;fontSize=16;fontColor=#000000;endArrow=none;endFill=0;" parent="1" source="IsRGL3yXtJuiuz7G9jz4-25" edge="1">
          <mxGeometry relative="1" as="geometry">
            <mxPoint x="418.255834334936" y="1307.9487179487182" as="targetPoint" />
          </mxGeometry>
        </mxCell>
        <mxCell id="IsRGL3yXtJuiuz7G9jz4-25" value="up-Subscription" style="rounded=1;whiteSpace=wrap;html=1;fillColor=#a0522d;strokeColor=#6D1F00;fontStyle=1;fontSize=16;fontColor=#ffffff;" parent="1" vertex="1">
          <mxGeometry x="477" y="1286" width="120" height="40" as="geometry" />
        </mxCell>
        <mxCell id="IsRGL3yXtJuiuz7G9jz4-26" style="edgeStyle=none;html=1;exitX=1;exitY=0.5;exitDx=0;exitDy=0;strokeColor=#000000;strokeWidth=6;fontFamily=Helvetica;fontSize=16;fontColor=#000000;endArrow=none;endFill=0;" parent="1" source="IsRGL3yXtJuiuz7G9jz4-27" edge="1">
          <mxGeometry relative="1" as="geometry">
            <mxPoint x="417.82846304086524" y="1257" as="targetPoint" />
          </mxGeometry>
        </mxCell>
        <mxCell id="IsRGL3yXtJuiuz7G9jz4-27" value="up-Discovery" style="rounded=1;whiteSpace=wrap;html=1;fillColor=#fa6800;strokeColor=#C73500;fontStyle=1;fontSize=16;fontColor=#000000;" parent="1" vertex="1">
          <mxGeometry x="481" y="1237" width="120" height="40" as="geometry" />
        </mxCell>
        <mxCell id="IsRGL3yXtJuiuz7G9jz4-28" style="edgeStyle=none;html=1;exitX=0;exitY=0.5;exitDx=0;exitDy=0;strokeColor=#000000;strokeWidth=6;fontFamily=Helvetica;fontSize=16;fontColor=#000000;endArrow=none;endFill=0;" parent="1" source="IsRGL3yXtJuiuz7G9jz4-29" edge="1">
          <mxGeometry relative="1" as="geometry">
            <mxPoint x="419.1105143229165" y="1309" as="targetPoint" />
          </mxGeometry>
        </mxCell>
        <mxCell id="IsRGL3yXtJuiuz7G9jz4-29" value="up-Twin" style="rounded=1;whiteSpace=wrap;html=1;fillColor=#e3c800;strokeColor=#B09500;fontStyle=1;fontSize=16;fontColor=#000000;" parent="1" vertex="1">
          <mxGeometry x="250" y="1286" width="120" height="40" as="geometry" />
        </mxCell>
        <mxCell id="IsRGL3yXtJuiuz7G9jz4-30" value="&lt;span style=&quot;color: rgb(0, 0, 0);&quot;&gt;&lt;font style=&quot;font-size: 12px;&quot;&gt;&lt;b&gt;up-core-service&lt;/b&gt;&lt;/font&gt;&lt;/span&gt;" style="html=1;whiteSpace=wrap;fillColor=#FFFFFF;fontColor=#FFFFFF;strokeColor=#FF0000;" parent="1" vertex="1">
          <mxGeometry x="364" y="1340" width="105" height="30" as="geometry" />
        </mxCell>
        <mxCell id="IsRGL3yXtJuiuz7G9jz4-31" value="" style="shape=image;verticalLabelPosition=bottom;labelBackgroundColor=default;verticalAlign=top;aspect=fixed;imageAspect=0;image=data:image/png,iVBORw0KGgoAAAANSUhEUgAAAJYAAACWCAMAAAAL34HQAAAAAXNSR0IArs4c6QAAAARnQU1BAACxjwv8YQUAAAAzUExURQAAAAAAAAAAAAAAAAAAAAAAAAAAAAAAAAAAAAAAAAAAAAAAAAAAAAAAAAAAAAAAAAAAAKMFRskAAAAQdFJOUwAQIDBAUGBwgI+fr7/P3+8jGoKKAAAACXBIWXMAABcRAAAXEQHKJvM/AAAEo0lEQVR4Xu2b6bbiIBCExeyb+P5POwldLNFcTaCizjl8f2aihlSapukG7iWTyWQymUwmk8lkMpnM11FKXWdw9QOosunGm76D29C3pcJ3X0JV3QQ5a8auxE8+jqpGZ6Mthho/tNTj00d0iu6lJqELna1dPjlXV/naUJ5AmLlD4+IMisE8ch89hBVyedpoUI/dp6ehLUFVt0+GbM1tJ8sqV0/VXVM8PUnVa+VTMX94qizVSesGPVZ/PqXq8SNDd66s8iaNL+h2McILmuDHkzpRVu375oWhPLUXphv59wRZjVOlm53NQ4yHL8u71bh/TlYrHztBlmtfN/hkH+uhy5Zl5o6F8WjLKpzOybKck8xjfT9l282E/ciVFafKWdjDlWX9QyaSnSBUraDKsg84pOpS464QqiwlbR4bglvWuuErEsuL68M53FMCpCt8w6LsuzdT4BZNP4S8m0Uzmcz/RdGOtqQioZr+YFh+QoovzdRl0pwJF3FUyMVHXDOQrCKh6C99+kacMyT5GnB1mFXxTFw6kIogssHHij7VST1XaTDKXcMy1UD0emk64j3VxopMj+/SkV6McK7R3PgALSepTHP6cJqK3n8gLdQEINM9PLhx31ymrsxGCxLiXMfKggUTr3Sv0ADCFy1IxDrXPD/ocfElc/+9xgg4/n7bSJyPCahX45CoXCo423Ev3UZ8Pt5XS3P/vbSrIqQtAHnbeJ+Q15oDshInI8nCkMLVcVAVz/8zAml5hGk1vr6W9RBTCNfjbR6ZJEyz8fFZZNHiqMM0G+8SgbWomGbjZYlv8bdpTLNxqc0CRiKuaKRkXAuQRXN1gCiNq+MgnLKXWaTZeJdF3GPv74rLJgxwyed5ebwgGURCcJaUhpU5WCQhScjCZYpmRwiZYBMKWEyKzFrfDcSERuHz3O14yQKTukDszSvGFqTN6Gp/Iaky3wZ9mDSOXCLIA/tASXUUnIvZi9KHiXWBVIrEFQjYPzEWIkTwIir6MPU9YXNcJXOV+SxpHC7AXKx5EZVw8sIBajGSueBZhDwczkAxl91MJ7iqXb9hJIPY8b4x8l2J9AzDK6zHUuZYa67k0WOXMtIbMsBPk4cPulCzagOM6sQJA6p4oRlBIq3st4esKP4uoDJL0VVAFXVvH6PxPu191aJdH329wuDkTNfuSu3UZWwTlFyFVXXoiM573GGnfbokH3JpQoUevPPWyIDTpXcU2Rh06DB/+nK3D+zH6XrfEXbkirX8DtLETL4tXpc53voCzO4Szf1m2ymqQl2v8wmkeiaaX/2+5OHDe3sJdE0vBjqmvjmah6fXu7NUzTjnnY3xl4sh9mq1OlJPjgwPuAC0sDql78C22rDa6+ZG0WfWx1s3/ubCzsgh9HC1AYoOx9CG0mxwCJiY0+DfPJ4HnvF9hODg2X38OZ1r4PqC9TKbF1venl4nEx6Gn7GBbN3Dt89ZytH4KOYTaptgL4xfELXg/+bCpZyhx2/Hj89wbYabDs7PrwMbPvwFwsB1ehg9QhhA2HsNKRSBsC862DP2nBx/xygR62I/Za0F05O/NBhB0XafmaUzmUwmk8lkMplMJsPgcvkH4Ad6f12xvsgAAAAASUVORK5CYII=;" parent="1" vertex="1">
          <mxGeometry x="572" y="1289" width="25" height="25" as="geometry" />
        </mxCell>
        <mxCell id="IsRGL3yXtJuiuz7G9jz4-32" value="" style="shape=image;verticalLabelPosition=bottom;labelBackgroundColor=default;verticalAlign=top;aspect=fixed;imageAspect=0;image=data:image/png,iVBORw0KGgoAAAANSUhEUgAAAJYAAACWCAMAAAAL34HQAAAAAXNSR0IArs4c6QAAAARnQU1BAACxjwv8YQUAAAAzUExURQAAAAAAAAAAAAAAAAAAAAAAAAAAAAAAAAAAAAAAAAAAAAAAAAAAAAAAAAAAAAAAAAAAAKMFRskAAAAQdFJOUwAQIDBAUGBwgI+fr7/P3+8jGoKKAAAACXBIWXMAABcRAAAXEQHKJvM/AAAEo0lEQVR4Xu2b6bbiIBCExeyb+P5POwldLNFcTaCizjl8f2aihlSapukG7iWTyWQymUwmk8lkMpnM11FKXWdw9QOosunGm76D29C3pcJ3X0JV3QQ5a8auxE8+jqpGZ6Mthho/tNTj00d0iu6lJqELna1dPjlXV/naUJ5AmLlD4+IMisE8ch89hBVyedpoUI/dp6ehLUFVt0+GbM1tJ8sqV0/VXVM8PUnVa+VTMX94qizVSesGPVZ/PqXq8SNDd66s8iaNL+h2McILmuDHkzpRVu375oWhPLUXphv59wRZjVOlm53NQ4yHL8u71bh/TlYrHztBlmtfN/hkH+uhy5Zl5o6F8WjLKpzOybKck8xjfT9l282E/ciVFafKWdjDlWX9QyaSnSBUraDKsg84pOpS464QqiwlbR4bglvWuuErEsuL68M53FMCpCt8w6LsuzdT4BZNP4S8m0Uzmcz/RdGOtqQioZr+YFh+QoovzdRl0pwJF3FUyMVHXDOQrCKh6C99+kacMyT5GnB1mFXxTFw6kIogssHHij7VST1XaTDKXcMy1UD0emk64j3VxopMj+/SkV6McK7R3PgALSepTHP6cJqK3n8gLdQEINM9PLhx31ymrsxGCxLiXMfKggUTr3Sv0ADCFy1IxDrXPD/ocfElc/+9xgg4/n7bSJyPCahX45CoXCo423Ev3UZ8Pt5XS3P/vbSrIqQtAHnbeJ+Q15oDshInI8nCkMLVcVAVz/8zAml5hGk1vr6W9RBTCNfjbR6ZJEyz8fFZZNHiqMM0G+8SgbWomGbjZYlv8bdpTLNxqc0CRiKuaKRkXAuQRXN1gCiNq+MgnLKXWaTZeJdF3GPv74rLJgxwyed5ebwgGURCcJaUhpU5WCQhScjCZYpmRwiZYBMKWEyKzFrfDcSERuHz3O14yQKTukDszSvGFqTN6Gp/Iaky3wZ9mDSOXCLIA/tASXUUnIvZi9KHiXWBVIrEFQjYPzEWIkTwIir6MPU9YXNcJXOV+SxpHC7AXKx5EZVw8sIBajGSueBZhDwczkAxl91MJ7iqXb9hJIPY8b4x8l2J9AzDK6zHUuZYa67k0WOXMtIbMsBPk4cPulCzagOM6sQJA6p4oRlBIq3st4esKP4uoDJL0VVAFXVvH6PxPu191aJdH329wuDkTNfuSu3UZWwTlFyFVXXoiM573GGnfbokH3JpQoUevPPWyIDTpXcU2Rh06DB/+nK3D+zH6XrfEXbkirX8DtLETL4tXpc53voCzO4Szf1m2ymqQl2v8wmkeiaaX/2+5OHDe3sJdE0vBjqmvjmah6fXu7NUzTjnnY3xl4sh9mq1OlJPjgwPuAC0sDql78C22rDa6+ZG0WfWx1s3/ubCzsgh9HC1AYoOx9CG0mxwCJiY0+DfPJ4HnvF9hODg2X38OZ1r4PqC9TKbF1venl4nEx6Gn7GBbN3Dt89ZytH4KOYTaptgL4xfELXg/+bCpZyhx2/Hj89wbYabDs7PrwMbPvwFwsB1ehg9QhhA2HsNKRSBsC862DP2nBx/xygR62I/Za0F05O/NBhB0XafmaUzmUwmk8lkMplMJsPgcvkH4Ad6f12xvsgAAAAASUVORK5CYII=;" parent="1" vertex="1">
          <mxGeometry x="345" y="1286" width="25" height="25" as="geometry" />
        </mxCell>
        <mxCell id="IsRGL3yXtJuiuz7G9jz4-33" value="&lt;font style=&quot;font-size: 21px;&quot;&gt;Apps &amp;amp; Services&lt;/font&gt;" style="rounded=1;whiteSpace=wrap;html=1;fillColor=#f8cecc;strokeColor=#b85450;fontSize=21;verticalAlign=middle;fontStyle=1;fontColor=#000000;" parent="1" vertex="1">
          <mxGeometry x="338.25" y="1149" width="160" height="60" as="geometry" />
        </mxCell>
        <mxCell id="IsRGL3yXtJuiuz7G9jz4-34" value="" style="shape=image;verticalLabelPosition=bottom;labelBackgroundColor=default;verticalAlign=top;aspect=fixed;imageAspect=0;image=data:image/png,iVBORw0KGgoAAAANSUhEUgAAAJYAAACWCAMAAAAL34HQAAAAAXNSR0IArs4c6QAAAARnQU1BAACxjwv8YQUAAAAzUExURQAAAAAAAAAAAAAAAAAAAAAAAAAAAAAAAAAAAAAAAAAAAAAAAAAAAAAAAAAAAAAAAAAAAKMFRskAAAAQdFJOUwAQIDBAUGBwgI+fr7/P3+8jGoKKAAAACXBIWXMAABcRAAAXEQHKJvM/AAAEo0lEQVR4Xu2b6bbiIBCExeyb+P5POwldLNFcTaCizjl8f2aihlSapukG7iWTyWQymUwmk8lkMpnM11FKXWdw9QOosunGm76D29C3pcJ3X0JV3QQ5a8auxE8+jqpGZ6Mthho/tNTj00d0iu6lJqELna1dPjlXV/naUJ5AmLlD4+IMisE8ch89hBVyedpoUI/dp6ehLUFVt0+GbM1tJ8sqV0/VXVM8PUnVa+VTMX94qizVSesGPVZ/PqXq8SNDd66s8iaNL+h2McILmuDHkzpRVu375oWhPLUXphv59wRZjVOlm53NQ4yHL8u71bh/TlYrHztBlmtfN/hkH+uhy5Zl5o6F8WjLKpzOybKck8xjfT9l282E/ciVFafKWdjDlWX9QyaSnSBUraDKsg84pOpS464QqiwlbR4bglvWuuErEsuL68M53FMCpCt8w6LsuzdT4BZNP4S8m0Uzmcz/RdGOtqQioZr+YFh+QoovzdRl0pwJF3FUyMVHXDOQrCKh6C99+kacMyT5GnB1mFXxTFw6kIogssHHij7VST1XaTDKXcMy1UD0emk64j3VxopMj+/SkV6McK7R3PgALSepTHP6cJqK3n8gLdQEINM9PLhx31ymrsxGCxLiXMfKggUTr3Sv0ADCFy1IxDrXPD/ocfElc/+9xgg4/n7bSJyPCahX45CoXCo423Ev3UZ8Pt5XS3P/vbSrIqQtAHnbeJ+Q15oDshInI8nCkMLVcVAVz/8zAml5hGk1vr6W9RBTCNfjbR6ZJEyz8fFZZNHiqMM0G+8SgbWomGbjZYlv8bdpTLNxqc0CRiKuaKRkXAuQRXN1gCiNq+MgnLKXWaTZeJdF3GPv74rLJgxwyed5ebwgGURCcJaUhpU5WCQhScjCZYpmRwiZYBMKWEyKzFrfDcSERuHz3O14yQKTukDszSvGFqTN6Gp/Iaky3wZ9mDSOXCLIA/tASXUUnIvZi9KHiXWBVIrEFQjYPzEWIkTwIir6MPU9YXNcJXOV+SxpHC7AXKx5EZVw8sIBajGSueBZhDwczkAxl91MJ7iqXb9hJIPY8b4x8l2J9AzDK6zHUuZYa67k0WOXMtIbMsBPk4cPulCzagOM6sQJA6p4oRlBIq3st4esKP4uoDJL0VVAFXVvH6PxPu191aJdH329wuDkTNfuSu3UZWwTlFyFVXXoiM573GGnfbokH3JpQoUevPPWyIDTpXcU2Rh06DB/+nK3D+zH6XrfEXbkirX8DtLETL4tXpc53voCzO4Szf1m2ymqQl2v8wmkeiaaX/2+5OHDe3sJdE0vBjqmvjmah6fXu7NUzTjnnY3xl4sh9mq1OlJPjgwPuAC0sDql78C22rDa6+ZG0WfWx1s3/ubCzsgh9HC1AYoOx9CG0mxwCJiY0+DfPJ4HnvF9hODg2X38OZ1r4PqC9TKbF1venl4nEx6Gn7GBbN3Dt89ZytH4KOYTaptgL4xfELXg/+bCpZyhx2/Hj89wbYabDs7PrwMbPvwFwsB1ehg9QhhA2HsNKRSBsC862DP2nBx/xygR62I/Za0F05O/NBhB0XafmaUzmUwmk8lkMplMJsPgcvkH4Ad6f12xvsgAAAAASUVORK5CYII=;" parent="1" vertex="1">
          <mxGeometry x="455" y="1158.5" width="25" height="25" as="geometry" />
        </mxCell>
        <mxCell id="IsRGL3yXtJuiuz7G9jz4-35" value="&lt;font style=&quot;font-size: 21px;&quot;&gt;Apps &amp;amp; Services&lt;/font&gt;" style="rounded=1;whiteSpace=wrap;html=1;fillColor=#f8cecc;strokeColor=#b85450;fontSize=21;verticalAlign=middle;fontStyle=1;fontColor=#000000;" parent="1" vertex="1">
          <mxGeometry x="335.75" y="1153.5" width="160" height="60" as="geometry" />
        </mxCell>
        <mxCell id="IsRGL3yXtJuiuz7G9jz4-36" style="edgeStyle=none;html=1;exitX=0.5;exitY=1;exitDx=0;exitDy=0;strokeColor=#000000;strokeWidth=6;fontFamily=Helvetica;fontSize=16;fontColor=#000000;entryX=0.5;entryY=0;entryDx=0;entryDy=0;endArrow=none;endFill=0;" parent="1" source="IsRGL3yXtJuiuz7G9jz4-37" target="IsRGL3yXtJuiuz7G9jz4-30" edge="1">
          <mxGeometry relative="1" as="geometry">
            <mxPoint x="666.995834334936" y="1249.4487179487182" as="targetPoint" />
          </mxGeometry>
        </mxCell>
        <mxCell id="IsRGL3yXtJuiuz7G9jz4-37" value="&lt;font style=&quot;font-size: 21px;&quot;&gt;Apps &amp;amp; Services&lt;/font&gt;" style="rounded=1;whiteSpace=wrap;html=1;fillColor=#f8cecc;strokeColor=#b85450;fontSize=21;verticalAlign=middle;fontStyle=1;fontColor=#000000;" parent="1" vertex="1">
          <mxGeometry x="335.75" y="1158.5" width="160" height="60" as="geometry" />
        </mxCell>
        <mxCell id="IsRGL3yXtJuiuz7G9jz4-38" value="" style="shape=image;verticalLabelPosition=bottom;labelBackgroundColor=default;verticalAlign=top;aspect=fixed;imageAspect=0;image=data:image/png,iVBORw0KGgoAAAANSUhEUgAAAJYAAACWCAMAAAAL34HQAAAAAXNSR0IArs4c6QAAAARnQU1BAACxjwv8YQUAAAAzUExURQAAAAAAAAAAAAAAAAAAAAAAAAAAAAAAAAAAAAAAAAAAAAAAAAAAAAAAAAAAAAAAAAAAAKMFRskAAAAQdFJOUwAQIDBAUGBwgI+fr7/P3+8jGoKKAAAACXBIWXMAABcRAAAXEQHKJvM/AAAEo0lEQVR4Xu2b6bbiIBCExeyb+P5POwldLNFcTaCizjl8f2aihlSapukG7iWTyWQymUwmk8lkMpnM11FKXWdw9QOosunGm76D29C3pcJ3X0JV3QQ5a8auxE8+jqpGZ6Mthho/tNTj00d0iu6lJqELna1dPjlXV/naUJ5AmLlD4+IMisE8ch89hBVyedpoUI/dp6ehLUFVt0+GbM1tJ8sqV0/VXVM8PUnVa+VTMX94qizVSesGPVZ/PqXq8SNDd66s8iaNL+h2McILmuDHkzpRVu375oWhPLUXphv59wRZjVOlm53NQ4yHL8u71bh/TlYrHztBlmtfN/hkH+uhy5Zl5o6F8WjLKpzOybKck8xjfT9l282E/ciVFafKWdjDlWX9QyaSnSBUraDKsg84pOpS464QqiwlbR4bglvWuuErEsuL68M53FMCpCt8w6LsuzdT4BZNP4S8m0Uzmcz/RdGOtqQioZr+YFh+QoovzdRl0pwJF3FUyMVHXDOQrCKh6C99+kacMyT5GnB1mFXxTFw6kIogssHHij7VST1XaTDKXcMy1UD0emk64j3VxopMj+/SkV6McK7R3PgALSepTHP6cJqK3n8gLdQEINM9PLhx31ymrsxGCxLiXMfKggUTr3Sv0ADCFy1IxDrXPD/ocfElc/+9xgg4/n7bSJyPCahX45CoXCo423Ev3UZ8Pt5XS3P/vbSrIqQtAHnbeJ+Q15oDshInI8nCkMLVcVAVz/8zAml5hGk1vr6W9RBTCNfjbR6ZJEyz8fFZZNHiqMM0G+8SgbWomGbjZYlv8bdpTLNxqc0CRiKuaKRkXAuQRXN1gCiNq+MgnLKXWaTZeJdF3GPv74rLJgxwyed5ebwgGURCcJaUhpU5WCQhScjCZYpmRwiZYBMKWEyKzFrfDcSERuHz3O14yQKTukDszSvGFqTN6Gp/Iaky3wZ9mDSOXCLIA/tASXUUnIvZi9KHiXWBVIrEFQjYPzEWIkTwIir6MPU9YXNcJXOV+SxpHC7AXKx5EZVw8sIBajGSueBZhDwczkAxl91MJ7iqXb9hJIPY8b4x8l2J9AzDK6zHUuZYa67k0WOXMtIbMsBPk4cPulCzagOM6sQJA6p4oRlBIq3st4esKP4uoDJL0VVAFXVvH6PxPu191aJdH329wuDkTNfuSu3UZWwTlFyFVXXoiM573GGnfbokH3JpQoUevPPWyIDTpXcU2Rh06DB/+nK3D+zH6XrfEXbkirX8DtLETL4tXpc53voCzO4Szf1m2ymqQl2v8wmkeiaaX/2+5OHDe3sJdE0vBjqmvjmah6fXu7NUzTjnnY3xl4sh9mq1OlJPjgwPuAC0sDql78C22rDa6+ZG0WfWx1s3/ubCzsgh9HC1AYoOx9CG0mxwCJiY0+DfPJ4HnvF9hODg2X38OZ1r4PqC9TKbF1venl4nEx6Gn7GBbN3Dt89ZytH4KOYTaptgL4xfELXg/+bCpZyhx2/Hj89wbYabDs7PrwMbPvwFwsB1ehg9QhhA2HsNKRSBsC862DP2nBx/xygR62I/Za0F05O/NBhB0XafmaUzmUwmk8lkMplMJsPgcvkH4Ad6f12xvsgAAAAASUVORK5CYII=;" parent="1" vertex="1">
          <mxGeometry x="468" y="1166.5" width="25" height="25" as="geometry" />
        </mxCell>
        <mxCell id="IsRGL3yXtJuiuz7G9jz4-39" value="" style="shape=image;verticalLabelPosition=bottom;labelBackgroundColor=default;verticalAlign=top;aspect=fixed;imageAspect=0;image=data:image/png,iVBORw0KGgoAAAANSUhEUgAAAJYAAACWCAMAAAAL34HQAAAAAXNSR0IArs4c6QAAAARnQU1BAACxjwv8YQUAAAAzUExURQAAAAAAAAAAAAAAAAAAAAAAAAAAAAAAAAAAAAAAAAAAAAAAAAAAAAAAAAAAAAAAAAAAAKMFRskAAAAQdFJOUwAQIDBAUGBwgI+fr7/P3+8jGoKKAAAACXBIWXMAABcRAAAXEQHKJvM/AAAEo0lEQVR4Xu2b6bbiIBCExeyb+P5POwldLNFcTaCizjl8f2aihlSapukG7iWTyWQymUwmk8lkMpnM11FKXWdw9QOosunGm76D29C3pcJ3X0JV3QQ5a8auxE8+jqpGZ6Mthho/tNTj00d0iu6lJqELna1dPjlXV/naUJ5AmLlD4+IMisE8ch89hBVyedpoUI/dp6ehLUFVt0+GbM1tJ8sqV0/VXVM8PUnVa+VTMX94qizVSesGPVZ/PqXq8SNDd66s8iaNL+h2McILmuDHkzpRVu375oWhPLUXphv59wRZjVOlm53NQ4yHL8u71bh/TlYrHztBlmtfN/hkH+uhy5Zl5o6F8WjLKpzOybKck8xjfT9l282E/ciVFafKWdjDlWX9QyaSnSBUraDKsg84pOpS464QqiwlbR4bglvWuuErEsuL68M53FMCpCt8w6LsuzdT4BZNP4S8m0Uzmcz/RdGOtqQioZr+YFh+QoovzdRl0pwJF3FUyMVHXDOQrCKh6C99+kacMyT5GnB1mFXxTFw6kIogssHHij7VST1XaTDKXcMy1UD0emk64j3VxopMj+/SkV6McK7R3PgALSepTHP6cJqK3n8gLdQEINM9PLhx31ymrsxGCxLiXMfKggUTr3Sv0ADCFy1IxDrXPD/ocfElc/+9xgg4/n7bSJyPCahX45CoXCo423Ev3UZ8Pt5XS3P/vbSrIqQtAHnbeJ+Q15oDshInI8nCkMLVcVAVz/8zAml5hGk1vr6W9RBTCNfjbR6ZJEyz8fFZZNHiqMM0G+8SgbWomGbjZYlv8bdpTLNxqc0CRiKuaKRkXAuQRXN1gCiNq+MgnLKXWaTZeJdF3GPv74rLJgxwyed5ebwgGURCcJaUhpU5WCQhScjCZYpmRwiZYBMKWEyKzFrfDcSERuHz3O14yQKTukDszSvGFqTN6Gp/Iaky3wZ9mDSOXCLIA/tASXUUnIvZi9KHiXWBVIrEFQjYPzEWIkTwIir6MPU9YXNcJXOV+SxpHC7AXKx5EZVw8sIBajGSueBZhDwczkAxl91MJ7iqXb9hJIPY8b4x8l2J9AzDK6zHUuZYa67k0WOXMtIbMsBPk4cPulCzagOM6sQJA6p4oRlBIq3st4esKP4uoDJL0VVAFXVvH6PxPu191aJdH329wuDkTNfuSu3UZWwTlFyFVXXoiM573GGnfbokH3JpQoUevPPWyIDTpXcU2Rh06DB/+nK3D+zH6XrfEXbkirX8DtLETL4tXpc53voCzO4Szf1m2ymqQl2v8wmkeiaaX/2+5OHDe3sJdE0vBjqmvjmah6fXu7NUzTjnnY3xl4sh9mq1OlJPjgwPuAC0sDql78C22rDa6+ZG0WfWx1s3/ubCzsgh9HC1AYoOx9CG0mxwCJiY0+DfPJ4HnvF9hODg2X38OZ1r4PqC9TKbF1venl4nEx6Gn7GBbN3Dt89ZytH4KOYTaptgL4xfELXg/+bCpZyhx2/Hj89wbYabDs7PrwMbPvwFwsB1ehg9QhhA2HsNKRSBsC862DP2nBx/xygR62I/Za0F05O/NBhB0XafmaUzmUwmk8lkMplMJsPgcvkH4Ad6f12xvsgAAAAASUVORK5CYII=;" parent="1" vertex="1">
          <mxGeometry x="576" y="1237" width="25" height="25" as="geometry" />
        </mxCell>
        <mxCell id="IsRGL3yXtJuiuz7G9jz4-40" style="edgeStyle=none;html=1;strokeColor=#000000;strokeWidth=6;fontFamily=Helvetica;fontSize=16;fontColor=#000000;endArrow=none;endFill=0;exitX=1;exitY=0.5;exitDx=0;exitDy=0;" parent="1" source="IsRGL3yXtJuiuz7G9jz4-41" edge="1">
          <mxGeometry relative="1" as="geometry">
            <mxPoint x="412" y="1249" as="targetPoint" />
            <mxPoint x="413.75" y="1489" as="sourcePoint" />
          </mxGeometry>
        </mxCell>
        <mxCell id="IsRGL3yXtJuiuz7G9jz4-41" value="up-simulator-proxy" style="rounded=1;whiteSpace=wrap;html=1;fillColor=#FFFFFF;strokeColor=#3333FF;fontStyle=1;fontSize=16;fontColor=#000000;" parent="1" vertex="1">
          <mxGeometry x="250" y="1229.5" width="120" height="40" as="geometry" />
        </mxCell>
        <mxCell id="IsRGL3yXtJuiuz7G9jz4-42" value="" style="shape=image;verticalLabelPosition=bottom;labelBackgroundColor=default;verticalAlign=top;aspect=fixed;imageAspect=0;image=data:image/png,iVBORw0KGgoAAAANSUhEUgAAAJYAAACWCAMAAAAL34HQAAAAAXNSR0IArs4c6QAAAARnQU1BAACxjwv8YQUAAAAzUExURQAAAAAAAAAAAAAAAAAAAAAAAAAAAAAAAAAAAAAAAAAAAAAAAAAAAAAAAAAAAAAAAAAAAKMFRskAAAAQdFJOUwAQIDBAUGBwgI+fr7/P3+8jGoKKAAAACXBIWXMAABcRAAAXEQHKJvM/AAAEo0lEQVR4Xu2b6bbiIBCExeyb+P5POwldLNFcTaCizjl8f2aihlSapukG7iWTyWQymUwmk8lkMpnM11FKXWdw9QOosunGm76D29C3pcJ3X0JV3QQ5a8auxE8+jqpGZ6Mthho/tNTj00d0iu6lJqELna1dPjlXV/naUJ5AmLlD4+IMisE8ch89hBVyedpoUI/dp6ehLUFVt0+GbM1tJ8sqV0/VXVM8PUnVa+VTMX94qizVSesGPVZ/PqXq8SNDd66s8iaNL+h2McILmuDHkzpRVu375oWhPLUXphv59wRZjVOlm53NQ4yHL8u71bh/TlYrHztBlmtfN/hkH+uhy5Zl5o6F8WjLKpzOybKck8xjfT9l282E/ciVFafKWdjDlWX9QyaSnSBUraDKsg84pOpS464QqiwlbR4bglvWuuErEsuL68M53FMCpCt8w6LsuzdT4BZNP4S8m0Uzmcz/RdGOtqQioZr+YFh+QoovzdRl0pwJF3FUyMVHXDOQrCKh6C99+kacMyT5GnB1mFXxTFw6kIogssHHij7VST1XaTDKXcMy1UD0emk64j3VxopMj+/SkV6McK7R3PgALSepTHP6cJqK3n8gLdQEINM9PLhx31ymrsxGCxLiXMfKggUTr3Sv0ADCFy1IxDrXPD/ocfElc/+9xgg4/n7bSJyPCahX45CoXCo423Ev3UZ8Pt5XS3P/vbSrIqQtAHnbeJ+Q15oDshInI8nCkMLVcVAVz/8zAml5hGk1vr6W9RBTCNfjbR6ZJEyz8fFZZNHiqMM0G+8SgbWomGbjZYlv8bdpTLNxqc0CRiKuaKRkXAuQRXN1gCiNq+MgnLKXWaTZeJdF3GPv74rLJgxwyed5ebwgGURCcJaUhpU5WCQhScjCZYpmRwiZYBMKWEyKzFrfDcSERuHz3O14yQKTukDszSvGFqTN6Gp/Iaky3wZ9mDSOXCLIA/tASXUUnIvZi9KHiXWBVIrEFQjYPzEWIkTwIir6MPU9YXNcJXOV+SxpHC7AXKx5EZVw8sIBajGSueBZhDwczkAxl91MJ7iqXb9hJIPY8b4x8l2J9AzDK6zHUuZYa67k0WOXMtIbMsBPk4cPulCzagOM6sQJA6p4oRlBIq3st4esKP4uoDJL0VVAFXVvH6PxPu191aJdH329wuDkTNfuSu3UZWwTlFyFVXXoiM573GGnfbokH3JpQoUevPPWyIDTpXcU2Rh06DB/+nK3D+zH6XrfEXbkirX8DtLETL4tXpc53voCzO4Szf1m2ymqQl2v8wmkeiaaX/2+5OHDe3sJdE0vBjqmvjmah6fXu7NUzTjnnY3xl4sh9mq1OlJPjgwPuAC0sDql78C22rDa6+ZG0WfWx1s3/ubCzsgh9HC1AYoOx9CG0mxwCJiY0+DfPJ4HnvF9hODg2X38OZ1r4PqC9TKbF1venl4nEx6Gn7GBbN3Dt89ZytH4KOYTaptgL4xfELXg/+bCpZyhx2/Hj89wbYabDs7PrwMbPvwFwsB1ehg9QhhA2HsNKRSBsC862DP2nBx/xygR62I/Za0F05O/NBhB0XafmaUzmUwmk8lkMplMJsPgcvkH4Ad6f12xvsgAAAAASUVORK5CYII=;" parent="1" vertex="1">
          <mxGeometry x="345" y="1237" width="25" height="25" as="geometry" />
        </mxCell>
        <mxCell id="IsRGL3yXtJuiuz7G9jz4-45" value="&lt;b&gt;SOME/IP&lt;/b&gt;" style="html=1;whiteSpace=wrap;fillColor=#FF9933;strokeColor=#C73500;fontColor=#000000;" parent="1" vertex="1">
          <mxGeometry x="362" y="958" width="105" height="30" as="geometry" />
        </mxCell>
        <mxCell id="IsRGL3yXtJuiuz7G9jz4-46" value="" style="endArrow=classic;startArrow=classic;html=1;rounded=0;edgeStyle=elbowEdgeStyle;elbow=vertical;fillColor=#FF9933;strokeColor=#FF9933;width=6;exitX=0.5;exitY=1;exitDx=0;exitDy=0;entryX=0;entryY=0.5;entryDx=0;entryDy=0;" parent="1" source="4JIX5KlJWy3tKQsQmlhY-35" target="IsRGL3yXtJuiuz7G9jz4-45" edge="1">
          <mxGeometry width="50" height="50" relative="1" as="geometry">
            <mxPoint x="-295" y="480" as="sourcePoint" />
            <mxPoint x="360" y="1000" as="targetPoint" />
            <Array as="points">
              <mxPoint x="10" y="973" />
              <mxPoint x="30" y="700" />
            </Array>
          </mxGeometry>
        </mxCell>
        <mxCell id="IsRGL3yXtJuiuz7G9jz4-47" value="SOME/IP" style="edgeLabel;html=1;align=center;verticalAlign=middle;resizable=0;points=[];" parent="IsRGL3yXtJuiuz7G9jz4-46" vertex="1" connectable="0">
          <mxGeometry x="0.3191" y="-2" relative="1" as="geometry">
            <mxPoint x="1" as="offset" />
          </mxGeometry>
        </mxCell>
        <mxCell id="IsRGL3yXtJuiuz7G9jz4-52" value="" style="endArrow=classic;startArrow=classic;html=1;rounded=0;edgeStyle=elbowEdgeStyle;elbow=vertical;fillColor=#FF9933;strokeColor=#00000F;width=6;" parent="1" source="4JIX5KlJWy3tKQsQmlhY-34" target="IsRGL3yXtJuiuz7G9jz4-41" edge="1">
          <mxGeometry width="50" height="50" relative="1" as="geometry">
            <mxPoint x="-570" y="750" as="sourcePoint" />
            <mxPoint x="97" y="1253" as="targetPoint" />
            <Array as="points">
              <mxPoint x="-255" y="1253" />
              <mxPoint x="-235" y="980" />
            </Array>
          </mxGeometry>
        </mxCell>
        <mxCell id="IsRGL3yXtJuiuz7G9jz4-53" value="Socket" style="edgeLabel;html=1;align=center;verticalAlign=middle;resizable=0;points=[];" parent="IsRGL3yXtJuiuz7G9jz4-52" vertex="1" connectable="0">
          <mxGeometry x="0.3191" y="-2" relative="1" as="geometry">
            <mxPoint x="1" as="offset" />
          </mxGeometry>
        </mxCell>
      </root>
    </mxGraphModel>
  </diagram>
</mxfile>
